<?xml version="1.0" encoding="utf-8"?>
<!-- Generator: Adobe Illustrator 21.0.2, SVG Export Plug-In . SVG Version: 6.00 Build 0)  -->
<svg version="1.1" id="Layer_1-bubbleSmall" xmlns="http://www.w3.org/2000/svg" xmlns:xlink="http://www.w3.org/1999/xlink" x="0px" y="0px"
	 viewBox="0 0 78 58.3" style="enable-background:new 0 0 78 58.3;" xml:space="preserve">
<style type="text/css">
	.outerRing-Small{fill:none;stroke-width:5.55;}
	.scoreText-Small{font-family:'BebasNeueLight'; font-size:31px;}
	.medianRing-Small{fill:none;stroke-width:1.5;}
	.medianText-Small{fill:#FFFFFF; font-family:'BebasNeueBold'; font-size:18px;}
	.PTScoreVeryLow {fill:#5A7F38;}
	.PTScoreLow {fill:#87A73D;}
	.PTScoreModerate {fill:#E3A224;}
	.PTScoreElevated {fill:#EF6B24;}
	.PTScoreHigh {fill:#B52025;}
	
	.borderVeryLow {stroke:#5A7F38;}
	.borderLow {stroke:#87A73D;}
	.borderModerate {stroke:#E3A224;}
	.borderElevated {stroke:#EF6B24;}
	.borderHigh {stroke:#B52025;}
	.borderWhite {stroke:#FFFFFF;}
	.borderGray {stroke:#E9EAEB;}
</style>
<g>
	<path class="outerRing-Small borderLow" d="M29.3,55.3c14.5,0,26.3-11.7,26.3-26.1c0-14.4-11.8-26.1-26.3-26.1S3,14.8,3,29.2C3,43.6,14.8,55.3,29.3,55.3z
		"/>
	<path class="scoreText-Small PTScoreLow" d="M61.5,56.9c8.5,0,15.4-6.8,15.4-15.2S70,26.6,61.5,26.6s-15.4,6.8-15.4,15.2S53.1,56.9,61.5,56.9"/>
	<path class="medianRing-Small borderGray" d="M61.5,56.9c8.5,0,15.4-6.8,15.4-15.2S70,26.6,61.5,26.6s-15.4,6.8-15.4,15.2S53.1,56.9,61.5,56.9z"/>
</g>
<text transform="matrix(1 0 0 1 29 40)" class="scoreText-Small PTScoreLow" text-anchor="middle">0</text>
<g>
	<path class="medianText-Small" d="M54.4,37.1l0.6-4h1.2v5.6h-0.8v-4l-0.6,4h-0.8l-0.7-4v4h-0.8v-5.6h1.2L54.4,37.1z"/>
	<path class="medianText-Small" d="M57.7,35.5h1.2v0.8h-1.2v1.6h1.5v0.8h-2.4v-5.6h2.4v0.8h-1.5V35.5z"/>
	<path class="medianText-Small" d="M59.6,33.1H61c0.4,0,0.8,0.1,1,0.4s0.3,0.6,0.3,1v2.8c0,0.5-0.1,0.8-0.3,1c-0.2,0.2-0.5,0.4-1,0.4h-1.4V33.1z
		 M60.5,33.9v4H61c0.1,0,0.2,0,0.3-0.1s0.1-0.2,0.1-0.4v-2.9c0-0.2,0-0.3-0.1-0.4s-0.2-0.1-0.3-0.1H60.5z"/>
	<path class="medianText-Small" d="M62.8,33.1h0.9v5.6h-0.9V33.1z"/>
	<path class="medianText-Small" d="M67.1,38.7h-0.9l-0.2-1H65l-0.2,1H64l0.9-5.6h1.3L67.1,38.7z M65.1,36.9H66l-0.4-2.8L65.1,36.9z"/>
	<path class="medianText-Small" d="M68.2,34.6v4.1h-0.8v-5.6h1.1l0.9,3.4v-3.4h0.8v5.6h-0.9L68.2,34.6z"/>
	<path class="medianText-Small" d="M71.6,34.8v0.8h-0.8v-0.8H71.6z M71.6,37.9v0.8h-0.8v-0.8H71.6z"/>
</g>
<text transform="matrix(1 0 0 1 61.8 53.5492)" class="medianText-Small" text-anchor="middle">0</text>
</svg>
