<?xml version="1.0" encoding="utf-8"?>
<!-- Generator: Adobe Illustrator 21.0.2, SVG Export Plug-In . SVG Version: 6.00 Build 0)  -->
<svg version="1.1" id="Layer_1-diagram" data-name="Layer 1" xmlns="http://www.w3.org/2000/svg" xmlns:xlink="http://www.w3.org/1999/xlink" x="0px" y="0px" viewBox="0 0 259.5 297" xml:space="preserve">
    <style>
      .cls-1-diagram, .cls-3-diagram, .cls-5-diagram {fill: none;}
      .cls-1-diagram {stroke: #A7A9AB; stroke-width: 3px;}
      .cls-2-diagram {fill: #A7A9AB;}
      .cls-3-diagram {stroke: #eaebec;}
      .cls-4-diagram {fill: #807E82;}
      .cls-5-diagram {stroke: #807E82; stroke-width: 7px;}
      .cls-7 {fill: #fff;}
	.PTScoreVeryLow {fill:#5A7F38;}
	.PTScoreLow {fill:#87A73D;}
	.PTScoreModerate {fill:#E3A224;}
	.PTScoreElevated {fill:#EF6B24;}
	.PTScoreHigh {fill:#B52025;}
		
    </style>
  <polyline class="cls-1-diagram" points="81.24 259.9 2.91 259.9 2.91 191.75 256.74 191.75 256.74 259.9 178.41 259.9"/>
  <polygon class="cls-2-diagram" points="89.63 259.9 75.74 254.85 75.74 264.96 89.63 259.9"/>
  <polygon class="cls-2-diagram" points="170.03 259.9 183.91 264.96 183.91 254.85 170.03 259.9"/>
  <line class="cls-1-diagram" x1="83.76" y1="81.75" x2="83.76" y2="191.75"/>
  <line class="cls-1-diagram" x1="220.47" y1="167.75" x2="220.47" y2="191.75"/>
  <g>
    <path class="cls-2-diagram" d="M75.35,254.07l14,5.16,1.29.48-1.29.47-14,5-1.07.38.44-1,1.92-4.61-1.93-5.22-.38-1Z"/>
    <path class="cls-3-diagram" d="M75.35,254.07l14,5.16,1.29.48-1.29.47-14,5-1.07.38.44-1,1.92-4.61-1.93-5.22-.38-1Z"/>
    <path class="cls-2-diagram" d="M185.15,265.23l-14-5.16-1.29-.48,1.29-.46,14-5,1-.36-.37,1L183.86,260l1.92,4.59.44,1.06Z"/>
    <path class="cls-3-diagram" d="M185.15,265.23l-14-5.16-1.29-.48,1.29-.46,14-5,1-.36-.37,1L183.86,260l1.92,4.59.44,1.06Z"/>
  </g>
  <g>
    <path class="cls-4-diagram" d="M109.42,121.67H111v8.4h2.53v1.4h-4.07Z"/>
    <path class="cls-4-diagram" d="M114.3,121.67h1.54v9.8H114.3Z"/>
    <path class="cls-4-diagram" d="M117,124a2.56,2.56,0,0,1,.6-1.83,2.68,2.68,0,0,1,3.47,0,2.56,2.56,0,0,1,.6,1.83v5.1a2.87,2.87,0,0,1-.29,1.37.28.28,0,0,0,.15.18.86.86,0,0,0,.29,0h.14v1.37h-.21a1.8,1.8,0,0,1-.85-.17,1.08,1.08,0,0,1-.48-.5,3.17,3.17,0,0,1-.5.13,3.11,3.11,0,0,1-.57,0,2.27,2.27,0,0,1-1.74-.64,2.56,2.56,0,0,1-.6-1.83Zm1.54,5.19a1,1,0,0,0,.22.75.89.89,0,0,0,1.16,0,1,1,0,0,0,.22-.75v-5.29a1,1,0,0,0-.22-.75.89.89,0,0,0-1.16,0,1,1,0,0,0-.22.75Z"/>
    <path class="cls-4-diagram" d="M124.24,121.67v7.56a1,1,0,0,0,.22.74.91.91,0,0,0,1.16,0,1,1,0,0,0,.22-.74v-7.56h1.46v7.46a2.61,2.61,0,0,1-.58,1.83,2.62,2.62,0,0,1-3.43,0,2.61,2.61,0,0,1-.58-1.83v-7.46Z"/>
    <path class="cls-4-diagram" d="M128.47,121.67H130v9.8h-1.54Z"/>
    <path class="cls-4-diagram" d="M131.27,121.67h2.44a2.24,2.24,0,0,1,1.73.62,2.58,2.58,0,0,1,.57,1.81v5a2.58,2.58,0,0,1-.57,1.81,2.24,2.24,0,0,1-1.73.62h-2.44Zm1.54,1.4v7h.87a.78.78,0,0,0,.57-.21,1,1,0,0,0,.21-.74V124a1,1,0,0,0-.21-.74.77.77,0,0,0-.57-.21Z"/>
    <path class="cls-4-diagram" d="M137.12,121.67h1.54v9.8h-1.54Z"/>
    <path class="cls-4-diagram" d="M139.48,121.67h4.76v1.4h-1.61v8.4h-1.54v-8.4h-1.61Z"/>
    <path class="cls-4-diagram" d="M146.49,128.22l-1.95-6.55h1.61l1.18,4.47,1.18-4.47H150L148,128.22v3.25h-1.54Z"/>
  </g>
  <path class="cls-5-diagram" d="M129.83,161.09A34.87,34.87,0,1,0,95,126.22,34.91,34.91,0,0,0,129.83,161.09Z"/>
  <g>
    <path class="cls-4-diagram" d="M194.4,116.9a2.66,2.66,0,0,1,.57-1.83,2.59,2.59,0,0,1,3.4,0,2.66,2.66,0,0,1,.57,1.83v.31h-1.46v-.41a1.09,1.09,0,0,0-.2-.75.85.85,0,0,0-1.13,0,1.09,1.09,0,0,0-.2.75,1.73,1.73,0,0,0,.22.89,3.67,3.67,0,0,0,.56.73q.34.34.72.69a6.84,6.84,0,0,1,.72.75,3.83,3.83,0,0,1,.56.92,3.07,3.07,0,0,1,.22,1.22,2.62,2.62,0,0,1-.58,1.83,2.63,2.63,0,0,1-3.43,0,2.62,2.62,0,0,1-.58-1.83v-.6h1.46v.7a1,1,0,0,0,.22.74.91.91,0,0,0,1.16,0,1,1,0,0,0,.22-.74,1.75,1.75,0,0,0-.22-.89,3.67,3.67,0,0,0-.56-.73q-.34-.34-.72-.69a6.76,6.76,0,0,1-.72-.75,3.8,3.8,0,0,1-.56-.92A3,3,0,0,1,194.4,116.9Z"/>
    <path class="cls-4-diagram" d="M201.49,118.68h2.11v1.4h-2.11V123h2.66v1.4H200v-9.8h4.2V116h-2.66Z"/>
    <path class="cls-4-diagram" d="M206.6,117.25v7.1h-1.39v-9.8h1.93l1.58,5.87v-5.87h1.37v9.8h-1.58Z"/>
    <path class="cls-4-diagram" d="M211.15,116.9a2.66,2.66,0,0,1,.57-1.83,2.59,2.59,0,0,1,3.4,0,2.66,2.66,0,0,1,.57,1.83v.31h-1.46v-.41a1.09,1.09,0,0,0-.2-.75.85.85,0,0,0-1.13,0,1.09,1.09,0,0,0-.2.75,1.73,1.73,0,0,0,.22.89,3.67,3.67,0,0,0,.56.73q.34.34.72.69a6.84,6.84,0,0,1,.72.75,3.83,3.83,0,0,1,.56.92,3.07,3.07,0,0,1,.22,1.22,2.62,2.62,0,0,1-.58,1.83,2.63,2.63,0,0,1-3.43,0,2.62,2.62,0,0,1-.58-1.83v-.6h1.46v.7a1,1,0,0,0,.22.74.91.91,0,0,0,1.16,0,1,1,0,0,0,.22-.74,1.75,1.75,0,0,0-.22-.89,3.67,3.67,0,0,0-.56-.73q-.34-.34-.72-.69a6.76,6.76,0,0,1-.72-.75,3.8,3.8,0,0,1-.56-.92A3,3,0,0,1,211.15,116.9Z"/>
    <path class="cls-4-diagram" d="M216.71,114.55h1.54v9.8h-1.54Z"/>
    <path class="cls-4-diagram" d="M219.06,114.55h4.76V116h-1.61v8.4h-1.54V116h-1.61Z"/>
    <path class="cls-4-diagram" d="M224.63,114.55h1.54v9.8h-1.54Z"/>
    <path class="cls-4-diagram" d="M229.76,122.55l1.18-8h1.41l-1.51,9.8h-2.3l-1.51-9.8h1.55Z"/>
    <path class="cls-4-diagram" d="M233.19,114.55h1.54v9.8h-1.54Z"/>
    <path class="cls-4-diagram" d="M235.54,114.55h4.76V116h-1.61v8.4h-1.54V116h-1.61Z"/>
    <path class="cls-4-diagram" d="M242.55,121.1l-1.95-6.55h1.61l1.18,4.47,1.18-4.47H246l-1.95,6.55v3.25h-1.54Z"/>
  </g>
  <g>
    <path class="cls-4-diagram" d="M195.88,128.55h4.76V130H199v8.4h-1.54V130h-1.61Z"/>
    <path class="cls-4-diagram" d="M201.32,130.9a2.56,2.56,0,0,1,.6-1.83,2.68,2.68,0,0,1,3.47,0,2.56,2.56,0,0,1,.6,1.83V136a2.56,2.56,0,0,1-.6,1.83,2.68,2.68,0,0,1-3.47,0,2.56,2.56,0,0,1-.6-1.83Zm1.54,5.2a1,1,0,0,0,.22.75.89.89,0,0,0,1.16,0,1,1,0,0,0,.22-.75v-5.29a1,1,0,0,0-.22-.75.88.88,0,0,0-1.16,0,1,1,0,0,0-.22.75Z"/>
    <path class="cls-4-diagram" d="M212.68,135.51l1-7h2.14v9.8h-1.46v-7l-1.06,7H211.9l-1.15-6.93v6.93H209.4v-9.8h2.14Z"/>
    <path class="cls-4-diagram" d="M222.11,138.35h-1.55l-.27-1.78H218.4l-.27,1.78h-1.41l1.57-9.8h2.25Zm-3.51-3.11h1.48l-.74-5Z"/>
    <path class="cls-4-diagram" d="M226.18,138.35l-.06-.18a1.5,1.5,0,0,1,0-.21,2.52,2.52,0,0,1,0-.32c0-.13,0-.29,0-.49v-1.54a1.52,1.52,0,0,0-.24-1,1,1,0,0,0-.77-.28h-.53v4H223v-9.8h2.32a2,2,0,0,1,2.28,2.25v.77a2,2,0,0,1-1,2,1.38,1.38,0,0,1,.8.78,3.51,3.51,0,0,1,.22,1.31v1.51a6.34,6.34,0,0,0,0,.64,2.07,2.07,0,0,0,.14.55Zm-1.68-8.4v3h.6a1,1,0,0,0,.68-.22,1.08,1.08,0,0,0,.25-.81v-1a1.24,1.24,0,0,0-.19-.77.71.71,0,0,0-.59-.24Z"/>
    <path class="cls-4-diagram" d="M230.73,134.45l-.48.9v3h-1.54v-9.8h1.54v4.27l2-4.27h1.54l-2.14,4.37,2.14,5.43h-1.58Z"/>
    <path class="cls-4-diagram" d="M236.18,132.68h2.11v1.4h-2.11V137h2.66v1.4h-4.2v-9.8h4.2V130h-2.66Z"/>
    <path class="cls-4-diagram" d="M239.47,128.55h4.76V130h-1.61v8.4h-1.54V130h-1.61Z"/>
  </g>
  <path class="cls-5-diagram" d="M220.46,161.09a34.87,34.87,0,1,0-34.87-34.87A34.91,34.91,0,0,0,220.46,161.09Z"/>
  <g>
    <path class="cls-4-diagram" d="M71,40.82v1.3a2.62,2.62,0,0,1-.58,1.83,2.63,2.63,0,0,1-3.43,0,2.62,2.62,0,0,1-.58-1.83V37A2.62,2.62,0,0,1,67,35.19a2.63,2.63,0,0,1,3.43,0A2.62,2.62,0,0,1,71,37v1H69.56v-1a1,1,0,0,0-.22-.75.89.89,0,0,0-1.16,0,1,1,0,0,0-.22.75v5.29a1,1,0,0,0,.22.74.91.91,0,0,0,1.16,0,1,1,0,0,0,.22-.74v-1.4Z"/>
    <path class="cls-4-diagram" d="M77.08,44.47H75.52l-.27-1.78H73.37l-.27,1.78H71.69l1.57-9.8h2.25Zm-3.51-3.11H75l-.74-5Z"/>
    <path class="cls-4-diagram" d="M80.18,34.67a2.24,2.24,0,0,1,1.73.62,2.58,2.58,0,0,1,.57,1.81v1.27a2.58,2.58,0,0,1-.57,1.81,2.24,2.24,0,0,1-1.73.62h-.73v3.68H77.92v-9.8Zm-.73,1.4v3.32h.73a.76.76,0,0,0,.56-.2,1,1,0,0,0,.2-.73V37a1,1,0,0,0-.2-.73.76.76,0,0,0-.56-.2Z"/>
    <path class="cls-4-diagram" d="M83.32,34.67h1.54v9.8H83.32Z"/>
    <path class="cls-4-diagram" d="M85.67,34.67h4.76v1.4H88.82v8.4H87.28v-8.4H85.67Z"/>
    <path class="cls-4-diagram" d="M95.71,44.47H94.16l-.27-1.78H92l-.27,1.78H90.32l1.57-9.8h2.25ZM92.2,41.36h1.48l-.74-5Z"/>
    <path class="cls-4-diagram" d="M96.55,34.67h1.54v8.4h2.53v1.4H96.55Z"/>
  </g>
  <path class="cls-5-diagram" d="M83.74,74.09A34.87,34.87,0,1,0,48.88,39.22,34.91,34.91,0,0,0,83.74,74.09Z"/>
  <g>
    <path class="cls-4-diagram" d="M166.12,37.47h-1.55l-.27-1.78h-1.89l-.27,1.78h-1.41l1.57-9.8h2.25Zm-3.51-3.11h1.48l-.74-5Z"/>
    <path class="cls-4-diagram" d="M166.76,30a2.66,2.66,0,0,1,.57-1.83,2.59,2.59,0,0,1,3.4,0A2.66,2.66,0,0,1,171.3,30v.31h-1.46v-.41a1.09,1.09,0,0,0-.2-.75.85.85,0,0,0-1.13,0,1.09,1.09,0,0,0-.2.75,1.73,1.73,0,0,0,.22.89,3.67,3.67,0,0,0,.56.73q.34.34.72.69a6.84,6.84,0,0,1,.72.75,3.84,3.84,0,0,1,.56.92,3.07,3.07,0,0,1,.22,1.22,2.62,2.62,0,0,1-.58,1.83,2.63,2.63,0,0,1-3.43,0,2.62,2.62,0,0,1-.58-1.83v-.6h1.46v.7a1,1,0,0,0,.22.74.91.91,0,0,0,1.16,0,1,1,0,0,0,.22-.74,1.75,1.75,0,0,0-.22-.89,3.7,3.7,0,0,0-.56-.73q-.34-.34-.72-.69a6.76,6.76,0,0,1-.72-.75,3.8,3.8,0,0,1-.56-.92A3,3,0,0,1,166.76,30Z"/>
    <path class="cls-4-diagram" d="M172.13,30a2.66,2.66,0,0,1,.57-1.83,2.59,2.59,0,0,1,3.4,0,2.66,2.66,0,0,1,.57,1.83v.31h-1.46v-.41a1.09,1.09,0,0,0-.2-.75.85.85,0,0,0-1.13,0,1.09,1.09,0,0,0-.2.75,1.73,1.73,0,0,0,.22.89,3.67,3.67,0,0,0,.56.73q.34.34.72.69a6.84,6.84,0,0,1,.72.75,3.84,3.84,0,0,1,.56.92,3.07,3.07,0,0,1,.22,1.22,2.62,2.62,0,0,1-.58,1.83,2.63,2.63,0,0,1-3.43,0,2.62,2.62,0,0,1-.58-1.83v-.6h1.46v.7a1,1,0,0,0,.22.74.91.91,0,0,0,1.16,0,1,1,0,0,0,.22-.74,1.75,1.75,0,0,0-.22-.89,3.7,3.7,0,0,0-.56-.73q-.34-.34-.72-.69a6.76,6.76,0,0,1-.72-.75,3.8,3.8,0,0,1-.56-.92A3,3,0,0,1,172.13,30Z"/>
    <path class="cls-4-diagram" d="M179.22,31.8h2.11v1.4h-2.11v2.87h2.66v1.4h-4.2v-9.8h4.2v1.4h-2.66Z"/>
    <path class="cls-4-diagram" d="M182.51,27.67h4.76v1.4h-1.61v8.4h-1.54v-8.4h-1.61Z"/>
  </g>
  <g>
    <path class="cls-4-diagram" d="M156.65,44a2.56,2.56,0,0,1,.6-1.83,2.68,2.68,0,0,1,3.47,0,2.56,2.56,0,0,1,.6,1.83v5.1a2.88,2.88,0,0,1-.29,1.37.28.28,0,0,0,.15.17.86.86,0,0,0,.29,0h.14v1.37h-.21a1.8,1.8,0,0,1-.85-.18,1.08,1.08,0,0,1-.48-.5,3.34,3.34,0,0,1-.5.13,3.16,3.16,0,0,1-.57,0,2.27,2.27,0,0,1-1.74-.64,2.56,2.56,0,0,1-.6-1.83Zm1.54,5.19a1,1,0,0,0,.22.75.89.89,0,0,0,1.16,0,1,1,0,0,0,.22-.75V43.92a1,1,0,0,0-.22-.75.88.88,0,0,0-1.16,0,1,1,0,0,0-.22.75Z"/>
    <path class="cls-4-diagram" d="M163.92,41.67v7.56a1,1,0,0,0,.22.74.91.91,0,0,0,1.16,0,1,1,0,0,0,.22-.74V41.67H167v7.46a2.61,2.61,0,0,1-.58,1.83A2.63,2.63,0,0,1,163,51a2.61,2.61,0,0,1-.58-1.83V41.67Z"/>
    <path class="cls-4-diagram" d="M173.13,51.47h-1.55l-.27-1.78h-1.89l-.27,1.78h-1.41l1.57-9.8h2.25Zm-3.51-3.11h1.48l-.74-5Z"/>
    <path class="cls-4-diagram" d="M174,41.67h1.54v8.4H178v1.4H174Z"/>
    <path class="cls-4-diagram" d="M178.86,41.67h1.54v9.8h-1.54Z"/>
    <path class="cls-4-diagram" d="M181.21,41.67H186v1.4h-1.61v8.4h-1.54v-8.4h-1.61Z"/>
    <path class="cls-4-diagram" d="M188.22,48.22l-1.95-6.55h1.61l1.18,4.47,1.18-4.47h1.47l-1.95,6.55v3.25h-1.54Z"/>
  </g>
  <path class="cls-5-diagram" d="M174.38,74.09a34.87,34.87,0,1,0-34.87-34.87A34.91,34.91,0,0,0,174.38,74.09Z"/>
  <g>
    <path class="cls-4-diagram" d="M19.54,125.8h2.11v1.4H19.54v2.87H22.2v1.4H18v-9.8h4.2v1.4H19.54Z"/>
    <path class="cls-4-diagram" d="M28.26,131.47H26.71l-.27-1.78H24.55l-.27,1.78H22.87l1.57-9.8H26.7Zm-3.51-3.11h1.48l-.74-5Z"/>
    <path class="cls-4-diagram" d="M32.34,131.47l-.06-.18a1.42,1.42,0,0,1,0-.21,2.58,2.58,0,0,1,0-.32c0-.13,0-.29,0-.49v-1.54a1.51,1.51,0,0,0-.24-1,1,1,0,0,0-.77-.28h-.53v4H29.12v-9.8h2.32a2.34,2.34,0,0,1,1.74.56,2.36,2.36,0,0,1,.54,1.69v.77a2,2,0,0,1-1,2,1.38,1.38,0,0,1,.8.78,3.52,3.52,0,0,1,.22,1.31v1.51a6.22,6.22,0,0,0,0,.64,2,2,0,0,0,.14.55Zm-1.68-8.4v3h.6a1,1,0,0,0,.68-.22,1.08,1.08,0,0,0,.25-.81v-1a1.24,1.24,0,0,0-.19-.77.72.72,0,0,0-.6-.24Z"/>
    <path class="cls-4-diagram" d="M36.24,124.37v7.1H34.86v-9.8h1.93l1.58,5.87v-5.87h1.37v9.8H38.16Z"/>
    <path class="cls-4-diagram" d="M41,121.67h1.54v9.8H41Z"/>
    <path class="cls-4-diagram" d="M45.16,124.37v7.1H43.77v-9.8h1.93l1.58,5.87v-5.87h1.37v9.8H47.08Z"/>
    <path class="cls-4-diagram" d="M52.22,126h2.16v3.11a2.62,2.62,0,0,1-.58,1.83,2.63,2.63,0,0,1-3.43,0,2.61,2.61,0,0,1-.58-1.83V124a2.62,2.62,0,0,1,.58-1.83,2.63,2.63,0,0,1,3.43,0,2.62,2.62,0,0,1,.58,1.83v1H52.92v-1a1,1,0,0,0-.22-.75.89.89,0,0,0-1.16,0,1,1,0,0,0-.22.75v5.29a1,1,0,0,0,.22.74.91.91,0,0,0,1.16,0,1,1,0,0,0,.22-.74v-1.81h-.7Z"/>
    <path class="cls-4-diagram" d="M55.3,124a2.66,2.66,0,0,1,.57-1.83,2.59,2.59,0,0,1,3.4,0,2.66,2.66,0,0,1,.57,1.83v.31H58.38v-.41a1.09,1.09,0,0,0-.2-.75.85.85,0,0,0-1.13,0,1.09,1.09,0,0,0-.2.75,1.73,1.73,0,0,0,.22.89,3.69,3.69,0,0,0,.56.73q.34.34.72.69a7,7,0,0,1,.72.75,3.84,3.84,0,0,1,.56.92,3.05,3.05,0,0,1,.22,1.22,2.62,2.62,0,0,1-.58,1.83,2.63,2.63,0,0,1-3.43,0,2.62,2.62,0,0,1-.58-1.83v-.6h1.46v.7a1,1,0,0,0,.22.74.91.91,0,0,0,1.16,0,1,1,0,0,0,.22-.74,1.73,1.73,0,0,0-.22-.89,3.69,3.69,0,0,0-.56-.73q-.34-.34-.72-.69a6.77,6.77,0,0,1-.72-.75,3.78,3.78,0,0,1-.56-.92A3,3,0,0,1,55.3,124Z"/>
  </g>
  <path class="cls-5-diagram" d="M39.19,161.09A34.87,34.87,0,1,0,4.33,126.22,34.91,34.91,0,0,0,39.19,161.09Z"/>
  <line class="cls-1-diagram" x1="174.39" y1="81.75" x2="174.39" y2="191.75"/>
  <line class="cls-1-diagram" x1="129.84" y1="167.75" x2="129.84" y2="191.75"/>
  <line class="cls-1-diagram" x1="39.21" y1="167.75" x2="39.21" y2="191.75"/>
  <path class="PTScoreLow" d="M130.5,296a38.3,38.3,0,1,0-38.13-38.3A38.22,38.22,0,0,0,130.5,296"/>
  <g>
    <path class="cls-7" d="M116.65,251l-2.78-9.36h2.3l1.68,6.38,1.68-6.38h2.1L118.85,251v4.64h-2.2Z"/>
    <path class="cls-7" d="M122.25,245a3.65,3.65,0,0,1,.86-2.61,3.83,3.83,0,0,1,5,0,3.66,3.66,0,0,1,.86,2.61v7.28a3.66,3.66,0,0,1-.86,2.61,3.83,3.83,0,0,1-5,0,3.65,3.65,0,0,1-.86-2.61Zm2.2,7.42a1.48,1.48,0,0,0,.31,1.07,1.26,1.26,0,0,0,1.66,0,1.49,1.49,0,0,0,.31-1.07v-7.56a1.49,1.49,0,0,0-.31-1.07,1.26,1.26,0,0,0-1.66,0,1.48,1.48,0,0,0-.31,1.07Z"/>
    <path class="cls-7" d="M132.63,241.65v10.8a1.45,1.45,0,0,0,.31,1.06,1.3,1.3,0,0,0,1.66,0,1.45,1.45,0,0,0,.31-1.06v-10.8H137v10.66a3.74,3.74,0,0,1-.83,2.61,3.75,3.75,0,0,1-4.9,0,3.74,3.74,0,0,1-.83-2.61V241.65Z"/>
    <path class="cls-7" d="M143.28,255.65l-.08-.26a1.9,1.9,0,0,1-.07-.3,3.82,3.82,0,0,1,0-.46q0-.28,0-.7v-2.2a2.15,2.15,0,0,0-.34-1.38,1.37,1.37,0,0,0-1.1-.4h-.76v5.7h-2.2v-14H142a3.34,3.34,0,0,1,2.49.8,3.37,3.37,0,0,1,.77,2.42V246a2.82,2.82,0,0,1-1.44,2.84,2,2,0,0,1,1.15,1.11,5,5,0,0,1,.31,1.87V254a8.85,8.85,0,0,0,0,.91,2.93,2.93,0,0,0,.2.79Zm-2.4-12V248h.86a1.39,1.39,0,0,0,1-.32,1.54,1.54,0,0,0,.35-1.16v-1.38a1.78,1.78,0,0,0-.27-1.1,1,1,0,0,0-.85-.34Z"/>
  </g>
  <g>
    <path class="cls-7" d="M103,260.65a3.2,3.2,0,0,1,2.47.88,3.69,3.69,0,0,1,.81,2.58v1.82a3.69,3.69,0,0,1-.81,2.58,3.2,3.2,0,0,1-2.47.88h-1v5.26h-2.2v-14Zm-1,2v4.74h1a1.08,1.08,0,0,0,.8-.28,1.47,1.47,0,0,0,.28-1V264a1.47,1.47,0,0,0-.28-1,1.08,1.08,0,0,0-.8-.28Z"/>
    <path class="cls-7" d="M107,260.65h6.8v2h-2.3v12h-2.2v-12H107Z"/>
  </g>
  <g>
    <path class="cls-7" d="M118,264a3.8,3.8,0,0,1,.81-2.61,3.7,3.7,0,0,1,4.86,0,3.8,3.8,0,0,1,.81,2.61v.44H122.4v-.58a1.56,1.56,0,0,0-.29-1.07,1.21,1.21,0,0,0-1.62,0,1.56,1.56,0,0,0-.29,1.07,2.48,2.48,0,0,0,.32,1.27,5.28,5.28,0,0,0,.8,1q.48.49,1,1a9.9,9.9,0,0,1,1,1.07,5.49,5.49,0,0,1,.8,1.32,4.36,4.36,0,0,1,.32,1.74,3.74,3.74,0,0,1-.83,2.61,3.75,3.75,0,0,1-4.9,0,3.74,3.74,0,0,1-.83-2.61v-.86H120v1a1.45,1.45,0,0,0,.31,1.06,1.3,1.3,0,0,0,1.66,0,1.45,1.45,0,0,0,.31-1.06,2.49,2.49,0,0,0-.32-1.27,5.36,5.36,0,0,0-.8-1q-.48-.49-1-1a9.81,9.81,0,0,1-1-1.07,5.44,5.44,0,0,1-.8-1.32A4.36,4.36,0,0,1,118,264Z"/>
    <path class="cls-7" d="M132.33,269.43v1.86a3.74,3.74,0,0,1-.83,2.61,3.75,3.75,0,0,1-4.9,0,3.74,3.74,0,0,1-.83-2.61V264a3.74,3.74,0,0,1,.83-2.61,3.75,3.75,0,0,1,4.9,0,3.74,3.74,0,0,1,.83,2.61v1.36h-2.08v-1.5a1.49,1.49,0,0,0-.31-1.07,1.26,1.26,0,0,0-1.66,0,1.48,1.48,0,0,0-.31,1.07v7.56a1.45,1.45,0,0,0,.31,1.06,1.3,1.3,0,0,0,1.66,0,1.45,1.45,0,0,0,.31-1.06v-2Z"/>
    <path class="cls-7" d="M133.7,264a3.65,3.65,0,0,1,.86-2.61,3.83,3.83,0,0,1,5,0,3.66,3.66,0,0,1,.86,2.61v7.28a3.66,3.66,0,0,1-.86,2.61,3.83,3.83,0,0,1-5,0,3.65,3.65,0,0,1-.86-2.61Zm2.2,7.42a1.48,1.48,0,0,0,.31,1.07,1.26,1.26,0,0,0,1.66,0,1.49,1.49,0,0,0,.31-1.07v-7.56a1.49,1.49,0,0,0-.31-1.07,1.26,1.26,0,0,0-1.66,0,1.48,1.48,0,0,0-.31,1.07Z"/>
    <path class="cls-7" d="M146.57,274.65l-.08-.26a1.9,1.9,0,0,1-.07-.3,3.82,3.82,0,0,1,0-.46q0-.28,0-.7v-2.2a2.15,2.15,0,0,0-.34-1.38,1.37,1.37,0,0,0-1.1-.4h-.76v5.7H142v-14h3.32a3.34,3.34,0,0,1,2.49.8,3.37,3.37,0,0,1,.77,2.42V265a2.82,2.82,0,0,1-1.44,2.84,2,2,0,0,1,1.15,1.11,5,5,0,0,1,.31,1.87V273a8.85,8.85,0,0,0,0,.91,2.93,2.93,0,0,0,.2.79Zm-2.4-12V267H145a1.39,1.39,0,0,0,1-.32,1.54,1.54,0,0,0,.35-1.16v-1.38a1.78,1.78,0,0,0-.27-1.1,1,1,0,0,0-.85-.34Z"/>
    <path class="cls-7" d="M152.39,266.55h3v2h-3v4.1h3.8v2h-6v-14h6v2h-3.8Z"/>
  </g>
  <path class="cls-7" d="M157.11,260.75h2.59v.77h-.88V265H158v-3.5h-.88Zm4.88,3,.56-3h1.16V265h-.79v-3l-.56,3h-.79l-.64-3v3h-.73v-4.27h1.16Z"/>
</svg>
