<?xml version="1.0" encoding="utf-8"?>
<!-- Generator: Adobe Illustrator 21.0.2, SVG Export Plug-In . SVG Version: 6.00 Build 0)  -->
<svg version="1.1"  id="cap_partners_logo" data-name="cap partners"  xmlns="http://www.w3.org/2000/svg" xmlns:xlink="http://www.w3.org/1999/xlink" x="0px" y="0px" viewBox="0 0 105 37" xml:space="preserve">
  <defs>
    <style>
      .whiteFill {
        fill: #fff;
      }
    </style>
  </defs>
  <g>
    <g>
      <path class="whiteFill" d="M3.52,34a1,1,0,0,0-1-.79c-.85,0-1.2.75-1.2,1.51s.35,1.51,1.2,1.51a1,1,0,0,0,1-1h.68a1.62,1.62,0,0,1-1.69,1.6,2.08,2.08,0,0,1,0-4.15A1.54,1.54,0,0,1,4.21,34Z"/>
      <path class="whiteFill" d="M9.23,32.7H10l1.52,4h-.74l-.37-1H8.8l-.37,1H7.72ZM9,35.08H10.2l-.59-1.7h0Z"/>
      <path class="whiteFill" d="M15.2,32.7H17c1.13,0,1.35.73,1.35,1.22s-.22,1.22-1.35,1.22H15.9v1.52H15.2Zm.69,1.88h1a.63.63,0,0,0,.69-.65c0-.52-.32-.66-.68-.66h-1Z"/>
      <path class="whiteFill" d="M22.23,32.7h.69v4h-.69Z"/>
      <path class="whiteFill" d="M26.73,32.7h3.21v.6H28.67v3.36H28V33.29H26.73Z"/>
      <path class="whiteFill" d="M34.78,32.7h.74l1.53,4H36.3l-.37-1H34.35l-.37,1h-.72Zm-.24,2.39h1.21l-.59-1.7h0Z"/>
      <path class="whiteFill" d="M40.75,32.7h.69v3.36h2v.6H40.75Z"/>
      <path class="whiteFill" d="M52.13,32.7h1.75c1.13,0,1.35.73,1.35,1.22s-.22,1.22-1.35,1.22H52.83v1.52h-.69Zm.69,1.88h1a.63.63,0,0,0,.69-.65c0-.52-.32-.66-.68-.66h-1Z"/>
      <path class="whiteFill" d="M60.22,32.7H61l1.52,4h-.74l-.37-1H59.79l-.37,1H58.7ZM60,35.08h1.21l-.59-1.7h0Z"/>
      <path class="whiteFill" d="M66.19,32.7h1.89c.87,0,1.31.4,1.31,1.07a1,1,0,0,1-.66,1h0c.24,0,.59.21.59.84a1.81,1.81,0,0,0,.22,1H68.8a1.11,1.11,0,0,1-.11-.58c0-.73-.15-1-.79-1h-1v1.63h-.69Zm.69,1.8H68c.44,0,.68-.22.68-.63s-.33-.6-.69-.6H66.88Z"/>
      <path class="whiteFill" d="M73,32.7h3.21v.6H75v3.36H74.3V33.29H73Z"/>
      <path class="whiteFill" d="M80,32.7h.73l1.81,2.92h0V32.7h.66v4h-.73l-1.8-2.91h0v2.91H80Z"/>
      <path class="whiteFill" d="M87.37,32.7h2.85v.6H88.07v1h2v.57h-2v1.16h2.2v.6H87.37Z"/>
      <path class="whiteFill" d="M94.2,32.7h1.89c.87,0,1.31.4,1.31,1.07a1,1,0,0,1-.66,1h0c.24,0,.59.21.59.84a1.82,1.82,0,0,0,.22,1H96.8a1.11,1.11,0,0,1-.11-.58c0-.73-.15-1-.79-1h-1v1.63H94.2Zm.69,1.8H96c.44,0,.68-.22.68-.63s-.33-.6-.69-.6H94.89Z"/>
      <path class="whiteFill" d="M101.88,35.34c0,.61.45.85,1,.85s.84-.3.84-.6a.47.47,0,0,0-.33-.49c-.28-.1-.64-.18-1.18-.33a1,1,0,0,1-.88-1c0-.79.73-1.16,1.45-1.16s1.52.44,1.52,1.26h-.7c0-.51-.38-.7-.85-.7-.32,0-.73.12-.73.52s.19.43.47.51l1.14.31a1,1,0,0,1,.77,1c0,.89-.79,1.24-1.57,1.24s-1.64-.43-1.65-1.41Z"/>
    </g>
    <rect class="whiteFill" x="0.5" y="29.52" width="104.18" height="0.66"/>
    <g>
      <path class="whiteFill" d="M4,9.48c0,1.89,0,2.12,1.19,2.25l.49.05a.35.35,0,0,1,0,.45c-1,0-1.62-.05-2.34-.05s-1.4,0-2.19.05a.35.35,0,0,1,0-.45l.38-.05c1-.14,1.08-.36,1.08-2.25V2.84c0-1.53,0-1.85-.84-1.92L1,.84a.3.3,0,0,1,0-.45A28.4,28.4,0,0,1,4.61.25,6.5,6.5,0,0,1,8.07,1,3.11,3.11,0,0,1,9.5,3.67a3,3,0,0,1-1.8,2.86,6.08,6.08,0,0,1-2.48.54c-.13-.05-.13-.32,0-.36a2.8,2.8,0,0,0,2.64-3A2.65,2.65,0,0,0,5,.81c-1,0-1,.07-1,.65Z"/>
      <path class="whiteFill" d="M11.78,4.84c0-1.5,0-1.71-.88-1.81l-.23,0c-.09-.06-.06-.32,0-.36.62,0,1.11,0,1.7,0h2.71a19.37,19.37,0,0,0,1.94,0,16.2,16.2,0,0,1,.23,1.91.28.28,0,0,1-.36,0c-.22-.68-.35-1.18-1.09-1.37a6.78,6.78,0,0,0-1.39-.09h-1c-.43,0-.43,0-.43.58V6.58c0,.4,0,.4.48.4h.83a5.33,5.33,0,0,0,1.22-.09c.17-.06.27-.14.35-.5L16,5.8a.29.29,0,0,1,.37,0c0,.35-.06.91-.06,1.45s.06,1.07.06,1.38a.28.28,0,0,1-.37,0l-.13-.56a.61.61,0,0,0-.45-.55,4.71,4.71,0,0,0-1.11-.07h-.83c-.43,0-.48,0-.48.39v2c0,.76,0,1.25.27,1.5s.48.33,1.74.33a4.2,4.2,0,0,0,1.84-.22,3.63,3.63,0,0,0,1-1.4.26.26,0,0,1,.36.1,12.71,12.71,0,0,1-.65,2c-1.29,0-2.58,0-3.86,0H12.4c-.62,0-1.11,0-2,0a.28.28,0,0,1,0-.36l.47,0c.82-.07.89-.29.89-1.8Z"/>
      <path class="whiteFill" d="M20.13,4.85c0-1.37,0-1.61-.63-1.68L19,3.11a.24.24,0,0,1,0-.36c.8-.07,1.8-.11,3.21-.11a5.09,5.09,0,0,1,2.4.43,2.14,2.14,0,0,1,1.2,2,2.66,2.66,0,0,1-1.8,2.4c-.07.09,0,.23.07.35A15.53,15.53,0,0,0,27,11.66,1.69,1.69,0,0,0,28,12a.12.12,0,0,1,0,.2,2.23,2.23,0,0,1-.63.07c-1.22,0-2-.31-3-1.76C24,10,23.46,9,23,8.35a1,1,0,0,0-1-.46c-.65,0-.68,0-.68.32V10c0,1.51,0,1.68.86,1.8l.3,0a.28.28,0,0,1,0,.36c-.65,0-1.14,0-1.71,0s-1.12,0-1.8,0a.28.28,0,0,1,0-.36l.36,0c.83-.1.86-.29.86-1.8Zm1.18,2.06a1.18,1.18,0,0,0,0,.48s.26.07,1,.07a2.41,2.41,0,0,0,1.48-.37,2.07,2.07,0,0,0,.72-1.78,2.12,2.12,0,0,0-2.3-2.22c-.89,0-.94.06-.94.46Z"/>
      <path class="whiteFill" d="M30.23,6.73c0,.39,0,.39.48.39h1A5.38,5.38,0,0,0,32.91,7c.16-.06.27-.13.36-.5L33.4,6a.3.3,0,0,1,.37,0c0,.35-.06.92-.06,1.45s.06,1.06.06,1.4c-.06.09-.27.09-.37,0l-.14-.56a.67.67,0,0,0-.46-.55,4.91,4.91,0,0,0-1.11-.07h-1c-.43,0-.48,0-.48.39v2c0,1.51,0,1.73.88,1.8l.49,0c.08.06.06.32,0,.36-.85,0-1.34,0-1.91,0s-1.12,0-1.8,0a.28.28,0,0,1,0-.36l.36,0c.83-.1.86-.29.86-1.8V4.84c0-1.51,0-1.71-.86-1.81L28,3c-.09-.06-.06-.32,0-.36.6,0,1.09,0,1.67,0h2.65c.92,0,1.75,0,1.94,0,0,.66,0,1.35,0,1.9a.26.26,0,0,1-.35,0c-.11-.65-.29-1.17-1-1.37a7,7,0,0,0-1.39-.09h-.88c-.43,0-.43,0-.43.58Z"/>
      <path class="whiteFill" d="M35.26,7.53a5,5,0,0,1,5.12-5.08,4.74,4.74,0,0,1,5,4.94,4.91,4.91,0,0,1-5,5A4.85,4.85,0,0,1,35.26,7.53Zm8.68.3c0-2.37-1.05-4.94-3.8-4.94-1.5,0-3.44,1-3.44,4.17,0,2.13,1,4.89,3.87,4.89C42.29,12,43.93,10.66,43.93,7.83Z"/>
      <path class="whiteFill" d="M46.9,4.85c0-1.37,0-1.61-.63-1.68l-.46-.06a.24.24,0,0,1,0-.36c.81-.07,1.8-.11,3.21-.11a5.1,5.1,0,0,1,2.4.43,2.15,2.15,0,0,1,1.19,2,2.66,2.66,0,0,1-1.8,2.4c-.07.09,0,.23.07.35a15.57,15.57,0,0,0,2.89,3.83,1.69,1.69,0,0,0,1,.35.12.12,0,0,1,0,.2,2.23,2.23,0,0,1-.63.07c-1.22,0-2-.31-3-1.76-.37-.53-1-1.53-1.41-2.17a1,1,0,0,0-1-.46c-.65,0-.68,0-.68.32V10c0,1.51,0,1.68.86,1.8l.3,0a.28.28,0,0,1,0,.36c-.65,0-1.14,0-1.71,0s-1.12,0-1.8,0a.28.28,0,0,1,0-.36l.36,0c.84-.1.86-.29.86-1.8Zm1.18,2.06a1.14,1.14,0,0,0,0,.48s.26.07,1,.07a2.41,2.41,0,0,0,1.48-.37,2.06,2.06,0,0,0,.72-1.78A2.12,2.12,0,0,0,49,3.08c-.89,0-.94.06-.94.46Z"/>
      <path class="whiteFill" d="M59.94,8.33c.33.68.65,1.34,1,2h0c.39-.68.75-1.42,1.11-2.16L63.42,5.4a8.12,8.12,0,0,0,1.09-2.76c.49,0,.79,0,1.08,0s.83,0,1.28,0a.3.3,0,0,1,0,.36l-.3,0c-.91.1-1,.36-1,1.37,0,1.53,0,4.19.16,6.26,0,.72,0,1.09.7,1.17l.46,0a.27.27,0,0,1,0,.36c-.59,0-1.18,0-1.7,0s-1.15,0-1.74,0a.27.27,0,0,1,0-.36l.42,0c.7-.07.7-.3.7-1.22l0-6h0c-.1.16-.65,1.31-.94,1.87L62.24,9c-.65,1.27-1.3,2.62-1.56,3.28a.16.16,0,0,1-.14.06.18.18,0,0,1-.13-.06c-.25-.76-.94-2.17-1.27-2.88L57.85,6.61c-.3-.66-.61-1.41-.92-2.07h0c-.06.89-.1,1.73-.15,2.56s-.1,2.16-.1,3.38c0,1.06.09,1.3.65,1.34l.55,0c.1.09.09.32,0,.36-.49,0-1.05,0-1.6,0s-1,0-1.47,0a.28.28,0,0,1,0-.36l.32,0c.61-.07.81-.17.89-1.18s.16-1.74.24-3.16c.07-1.19.13-2.42.16-3.21s-.09-1.09-1-1.24l-.23,0a.27.27,0,0,1,.06-.36c.43,0,.78,0,1.14,0s.72,0,1.19,0A5.51,5.51,0,0,0,58.29,5Z"/>
      <path class="whiteFill" d="M73.27,8.84c-.1-.32-.16-.36-.59-.36H70.5c-.36,0-.45,0-.55.35l-.5,1.51a5.46,5.46,0,0,0-.32,1.19c0,.17.07.26.42.29l.47,0a.23.23,0,0,1,0,.36c-.37,0-.82,0-1.5,0-.47,0-1,0-1.38,0a.28.28,0,0,1,0-.36l.47,0a1,1,0,0,0,.86-.7c.26-.66.66-1.6,1.27-3.21L71.16,4a2.05,2.05,0,0,0,.25-1,1.61,1.61,0,0,0,.75-.55.2.2,0,0,1,.22.13c.19.63.42,1.29.63,1.93l2,5.78c.42,1.24.6,1.45,1.22,1.53l.39,0a.29.29,0,0,1,0,.36c-.59,0-1.09,0-1.74,0s-1.24,0-1.65,0a.24.24,0,0,1,0-.36l.42,0c.3,0,.5-.12.5-.26a3,3,0,0,0-.19-.76ZM70.42,7.56c-.11.33-.1.34.3.34h1.77c.42,0,.45-.06.32-.45L72,5.11a9,9,0,0,0-.33-.91h0a8.64,8.64,0,0,0-.34.85Z"/>
      <path class="whiteFill" d="M85.8,9.73c0,.43,0,2.14,0,2.52a.26.26,0,0,1-.27.16c-.17-.25-.59-.75-1.84-2.17l-3.34-3.8C80,6,79,4.81,78.72,4.49h0a3.68,3.68,0,0,0-.07.94V8.56a11.85,11.85,0,0,0,.26,3,1,1,0,0,0,.73.27l.45,0a.27.27,0,0,1,0,.36c-.65,0-1.15,0-1.68,0s-1,0-1.5,0a.27.27,0,0,1,0-.36l.39,0c.33,0,.56-.13.63-.29a13.79,13.79,0,0,0,.19-3V4.4a1.32,1.32,0,0,0-.32-1A1.56,1.56,0,0,0,76.82,3l-.25,0c-.08-.09-.08-.3,0-.36.6,0,1.37,0,1.63,0a4.58,4.58,0,0,0,.66,0A20.69,20.69,0,0,0,81.36,5.8l1.4,1.57c1,1.12,1.7,1.91,2.38,2.61h0a1.44,1.44,0,0,0,.06-.6V6.29a10.15,10.15,0,0,0-.29-3c-.09-.13-.32-.22-.89-.29l-.24,0c-.1-.09-.09-.32,0-.36.66,0,1.15,0,1.7,0s1,0,1.48,0A.25.25,0,0,1,87,3l-.2,0c-.46.07-.75.19-.81.3a11.65,11.65,0,0,0-.22,3Z"/>
      <path class="whiteFill" d="M88.75,3.67a6.21,6.21,0,0,1,3.89-1.22,11.08,11.08,0,0,1,2.55.35,1.12,1.12,0,0,0,.4.06c0,.33.09,1.24.2,2.11a.31.31,0,0,1-.39,0c-.22-1-.86-2.1-2.95-2.1s-4.07,1.4-4.07,4.37S90.29,12,92.65,12a3.07,3.07,0,0,0,3-2.06A.3.3,0,0,1,96,10a5.4,5.4,0,0,1-.69,2,2.91,2.91,0,0,0-.5.14,8.45,8.45,0,0,1-2.27.33,6.3,6.3,0,0,1-3.58-1,4.64,4.64,0,0,1-2-4A4.78,4.78,0,0,1,88.75,3.67Z"/>
      <path class="whiteFill" d="M97.75,4.84c0-1.5,0-1.71-.88-1.81l-.23,0c-.09-.06-.06-.32,0-.36.62,0,1.11,0,1.7,0h2.71a19.33,19.33,0,0,0,1.94,0,15.89,15.89,0,0,1,.23,1.91.28.28,0,0,1-.36,0c-.22-.68-.35-1.18-1.09-1.37a6.78,6.78,0,0,0-1.39-.09h-1c-.43,0-.43,0-.43.58V6.58c0,.4,0,.4.47.4h.84a5.34,5.34,0,0,0,1.22-.09c.17-.06.27-.14.35-.5l.11-.59a.29.29,0,0,1,.37,0c0,.35-.06.91-.06,1.45s.06,1.07.06,1.38a.29.29,0,0,1-.37,0l-.13-.56a.61.61,0,0,0-.45-.55,4.72,4.72,0,0,0-1.11-.07H99.4c-.43,0-.47,0-.47.39v2c0,.76,0,1.25.27,1.5s.47.33,1.74.33a4.2,4.2,0,0,0,1.84-.22,3.63,3.63,0,0,0,1-1.4.26.26,0,0,1,.36.1,12.59,12.59,0,0,1-.65,2c-1.3,0-2.58,0-3.86,0h-1.3c-.62,0-1.11,0-2,0a.28.28,0,0,1,0-.36l.47,0c.82-.07.89-.29.89-1.8Z"/>
    </g>
    <g>
      <path class="whiteFill" d="M57.61,23.49c0,1.51,0,1.71,1,1.8l.52,0c.1.06.07.32,0,.36-.94,0-1.49,0-2.15,0s-1.23,0-2.28,0a.23.23,0,0,1,0-.36l.59,0c.94-.07,1-.29,1-1.8V17.06c0-.45,0-.46-.49-.46h-.9a3.76,3.76,0,0,0-2,.36,2.62,2.62,0,0,0-.74,1,.34.34,0,0,1-.43-.1,13.56,13.56,0,0,0,.62-2.14.46.46,0,0,1,.31,0c.1.46.64.45,1.4.45h6.65c.89,0,1,0,1.28-.4.08,0,.26,0,.3,0A7.66,7.66,0,0,0,62,18c-.07.12-.34.12-.43,0,0-.36-.16-.89-.41-1.05a3.65,3.65,0,0,0-1.9-.36H58.08c-.49,0-.48,0-.48.49Z"/>
      <path class="whiteFill" d="M65.12,18.33c0-1.37,0-1.61-.72-1.68l-.52-.06a.22.22,0,0,1,0-.36c.92-.07,2.05-.12,3.66-.12a6.53,6.53,0,0,1,2.74.43,2.13,2.13,0,0,1,1.36,2A2.75,2.75,0,0,1,69.6,21c-.08.09,0,.23.08.35A16,16,0,0,0,73,25.14a2.13,2.13,0,0,0,1.13.4.11.11,0,0,1,0,.2,3,3,0,0,1-.72.07A3.79,3.79,0,0,1,70,24c-.43-.53-1.1-1.52-1.61-2.17a1.23,1.23,0,0,0-1.17-.46c-.74,0-.77,0-.77.32v1.81c0,1.51,0,1.68,1,1.8l.35,0a.26.26,0,0,1,0,.36c-.74,0-1.3,0-2,0s-1.28,0-2.05,0a.25.25,0,0,1,0-.36l.41,0c1-.1,1-.29,1-1.8Zm1.35,2.06c0,.26,0,.42,0,.47a3.41,3.41,0,0,0,1.13.07,3.06,3.06,0,0,0,1.69-.37,2,2,0,0,0,.82-1.78c0-1.14-.81-2.22-2.63-2.22-1,0-1.07.06-1.07.46Z"/>
      <path class="whiteFill" d="M82.76,19.77a9.16,9.16,0,0,0-.31-3,1.08,1.08,0,0,0-.82-.3l-.41,0a.24.24,0,0,1,0-.35c.63,0,1.23,0,1.87,0s1.13,0,1.72,0a.23.23,0,0,1,0,.35l-.39,0c-.41,0-.74.16-.82.35a10.65,10.65,0,0,0-.23,2.94v1.63a4.59,4.59,0,0,1-1.15,3.44,4.68,4.68,0,0,1-3.13,1.05,5.13,5.13,0,0,1-3.07-.79c-.87-.63-1.28-1.68-1.28-3.4V18.3c0-1.5,0-1.74-1-1.81l-.41,0c-.1-.06-.07-.3,0-.35.82,0,1.38,0,2,0s1.22,0,2,0c.1,0,.13.29,0,.35l-.39,0c-1,.07-1,.32-1,1.81v3.11c0,2.32.82,3.84,3.33,3.84s3.28-1.64,3.28-3.83Z"/>
      <path class="whiteFill" d="M88.19,25.88a5.7,5.7,0,0,1-2.56-.53,5.94,5.94,0,0,1-.45-2c.08-.1.33-.13.39,0a2.86,2.86,0,0,0,2.82,2.14c1.38,0,2.05-.79,2.05-1.65a2.12,2.12,0,0,0-1.35-2l-1.56-.89a3.07,3.07,0,0,1-1.77-2.47c0-1.37,1.22-2.47,3.35-2.47a6.39,6.39,0,0,1,1.53.19,3.59,3.59,0,0,0,.58.09,5.62,5.62,0,0,1,.3,1.76.36.36,0,0,1-.41,0,2.07,2.07,0,0,0-2.23-1.63c-1.61,0-2,.94-2,1.6,0,.83.79,1.42,1.39,1.77l1.31.72a3.26,3.26,0,0,1,2.05,2.76C91.68,24.8,90.32,25.88,88.19,25.88Z"/>
      <path class="whiteFill" d="M98.89,23.49c0,1.51,0,1.71,1,1.8l.53,0c.1.06.07.32,0,.36-.93,0-1.49,0-2.15,0s-1.23,0-2.28,0a.23.23,0,0,1,0-.36l.59,0c.94-.07,1-.29,1-1.8V17.06c0-.45,0-.46-.49-.46h-.9a3.76,3.76,0,0,0-2,.36,2.61,2.61,0,0,0-.74,1,.34.34,0,0,1-.43-.1,13.9,13.9,0,0,0,.62-2.14.46.46,0,0,1,.31,0c.1.46.64.45,1.39.45h6.65c.89,0,1,0,1.28-.4.08,0,.26,0,.29,0a7.63,7.63,0,0,0-.24,2.19c-.07.12-.35.12-.43,0,0-.36-.16-.89-.41-1.05a3.65,3.65,0,0,0-1.9-.36H99.36c-.49,0-.48,0-.48.49Z"/>
    </g>
    <g>
      <polygon class="whiteFill" points="13.65 25.68 0.55 25.68 24.05 13.36 13.65 25.68"/>
      <polygon class="whiteFill" points="38.63 25.68 51.72 25.68 28.23 13.36 38.63 25.68"/>
    </g>
    <path class="whiteFill" d="M102.29,22.88a1.48,1.48,0,0,1,.71.19,1.32,1.32,0,0,1,.54.53,1.47,1.47,0,0,1,.19.72,1.45,1.45,0,0,1-.19.71,1.32,1.32,0,0,1-.53.53,1.44,1.44,0,0,1-1.43,0A1.33,1.33,0,0,1,101,25a1.43,1.43,0,0,1-.19-.71,1.46,1.46,0,0,1,.19-.72,1.32,1.32,0,0,1,.54-.53A1.48,1.48,0,0,1,102.29,22.88Zm0,.24a1.22,1.22,0,0,0-.59.16,1.09,1.09,0,0,0-.45.44,1.21,1.21,0,0,0-.16.6,1.2,1.2,0,0,0,.16.59,1.12,1.12,0,0,0,.44.44,1.21,1.21,0,0,0,1.19,0,1.11,1.11,0,0,0,.44-.44,1.21,1.21,0,0,0,.16-.59,1.23,1.23,0,0,0-.16-.6,1.1,1.1,0,0,0-.45-.44A1.23,1.23,0,0,0,102.29,23.12Zm-.63,2V23.57h.54a1.36,1.36,0,0,1,.4,0,.4.4,0,0,1,.2.15.39.39,0,0,1,.07.23.41.41,0,0,1-.12.3.49.49,0,0,1-.32.14.41.41,0,0,1,.13.08,1.73,1.73,0,0,1,.23.31l.19.3h-.31l-.14-.24a1.22,1.22,0,0,0-.26-.36.33.33,0,0,0-.2-.05h-.15v.66Zm.25-.87h.31a.51.51,0,0,0,.3-.06.21.21,0,0,0,0-.29.25.25,0,0,0-.11-.08.83.83,0,0,0-.25,0h-.29Z"/>
  </g>
</svg>
