<?xml version="1.0" encoding="utf-8"?>
<!-- Generator: Adobe Illustrator 21.0.2, SVG Export Plug-In . SVG Version: 6.00 Build 0)  -->
<svg version="1.1" id="Layer_1-measure" xmlns="http://www.w3.org/2000/svg" xmlns:xlink="http://www.w3.org/1999/xlink" x="0px" y="0px"
	 viewBox="0 0 225 24" style="enable-background:new 0 0 225 24;" xml:space="preserve">
<style type="text/css">
	.st1-measure{fill:none;stroke:#A5A5A5;stroke-width:2.5;}
	.st4-measure{fill:#FFFFFF; font-family:'Roboto-Bold'; font-size:6px;}
	.PTScoreVeryLow {fill:#5A7F38;}
	.PTScoreLow {fill:#87A73D;}
	.PTScoreModerate {fill:#E3A224;}
	.PTScoreElevated {fill:#EF6B24;}
	.PTScoreHigh {fill:#B52025;}
</style>
	
<rect class="st4-measure" width="44" height="23.9"/>
<rect class="PTScoreVeryLow" width="44" height="10"/>
<text transform="matrix(1 0 0 1 22 6.7)" class="st4-measure" text-anchor="middle">0—99</text>
<rect y="22" class="PTScoreVeryLow" width="44" height="1.9"/>
<g>
	<path class="PTScoreVeryLow" d="M6.6,17.2l1-3.2h1l-1.5,4.3H6.2L4.7,14h1L6.6,17.2z"/>
	<path class="PTScoreVeryLow" d="M12.4,16.4h-1.7v1.1h2v0.7H9.9V14h2.9v0.7h-2v1h1.7V16.4z"/>
	<path class="PTScoreVeryLow" d="M15.7,16.7H15v1.6h-0.9V14h1.6c0.2,0,0.5,0,0.7,0.1c0.2,0.1,0.4,0.1,0.5,0.2c0.1,0.1,0.2,0.2,0.3,0.4
		s0.1,0.3,0.1,0.6c0,0.2,0,0.3-0.1,0.4c0,0.1-0.1,0.2-0.2,0.3c-0.1,0.1-0.1,0.2-0.2,0.3s-0.2,0.1-0.3,0.2l0.9,1.7v0h-0.9L15.7,16.7z
		 M15,16h0.7c0.1,0,0.2,0,0.3,0c0.1,0,0.2-0.1,0.2-0.1c0.1-0.1,0.1-0.1,0.1-0.2s0-0.2,0-0.3c0-0.2-0.1-0.4-0.2-0.5s-0.3-0.2-0.5-0.2
		H15V16z"/>
	<path class="PTScoreVeryLow" d="M20.2,15.9l0.9-1.9h1l-1.4,2.7v1.5h-0.9v-1.5L18.4,14h1L20.2,15.9z"/>
	<path class="PTScoreVeryLow" d="M26.6,17.5h1.9v0.7h-2.7V14h0.9V17.5z"/>
	<path class="PTScoreVeryLow" d="M33.2,16.2c0,0.3,0,0.6-0.1,0.9s-0.2,0.5-0.4,0.7s-0.4,0.3-0.6,0.4c-0.2,0.1-0.5,0.1-0.7,0.1s-0.5,0-0.7-0.1
		c-0.2-0.1-0.4-0.2-0.6-0.4s-0.3-0.4-0.4-0.7s-0.1-0.6-0.1-0.9V16c0-0.3,0-0.6,0.1-0.9s0.2-0.5,0.4-0.7s0.4-0.3,0.6-0.4
		c0.2-0.1,0.5-0.1,0.7-0.1s0.5,0,0.7,0.1c0.2,0.1,0.4,0.2,0.6,0.4s0.3,0.4,0.4,0.7s0.1,0.6,0.1,0.9V16.2z M32.3,16
		c0-0.4-0.1-0.8-0.2-1s-0.4-0.3-0.7-0.3s-0.5,0.1-0.7,0.3s-0.2,0.6-0.2,1v0.2c0,0.2,0,0.4,0.1,0.6s0.1,0.3,0.2,0.4
		c0.1,0.1,0.2,0.2,0.3,0.3c0.1,0.1,0.2,0.1,0.4,0.1c0.3,0,0.5-0.1,0.7-0.4s0.2-0.6,0.2-1V16z"/>
	<path class="PTScoreVeryLow" d="M38,17l0.6-3h0.9l-0.9,4.3h-0.9L37,15.4l-0.7,2.9h-0.9L34.4,14h0.9l0.6,3l0.7-3h0.7L38,17z"/>
</g>
	
<rect x="45" class="st4-measure" width="44" height="23.9"/>
<rect x="45" class="PTScoreLow" width="44" height="10"/>
<text transform="matrix(1 0 0 1 67 6.7498)" class="st4-measure" text-anchor="middle">100—199</text>
<rect x="45" y="22.1" class="PTScoreLow" width="44" height="1.9"/>
<g>
	<path class="PTScoreLow" d="M61.4,17.6h1.9v0.7h-2.7V14h0.9V17.6z"/>
	<path class="PTScoreLow" d="M68,16.3c0,0.3,0,0.6-0.1,0.9s-0.2,0.5-0.4,0.7s-0.4,0.3-0.6,0.4c-0.2,0.1-0.5,0.1-0.7,0.1s-0.5,0-0.7-0.1
		c-0.2-0.1-0.4-0.2-0.6-0.4s-0.3-0.4-0.4-0.7s-0.1-0.6-0.1-0.9v-0.2c0-0.3,0-0.6,0.1-0.9s0.2-0.5,0.4-0.7s0.4-0.3,0.6-0.4
		c0.2-0.1,0.5-0.1,0.7-0.1s0.5,0,0.7,0.1c0.2,0.1,0.4,0.2,0.6,0.4s0.3,0.4,0.4,0.7s0.1,0.6,0.1,0.9V16.3z M67.1,16.1
		c0-0.4-0.1-0.8-0.2-1s-0.4-0.3-0.7-0.3s-0.5,0.1-0.7,0.3s-0.2,0.6-0.2,1v0.2c0,0.2,0,0.4,0.1,0.6s0.1,0.3,0.2,0.4
		c0.1,0.1,0.2,0.2,0.3,0.3c0.1,0.1,0.2,0.1,0.4,0.1c0.3,0,0.5-0.1,0.7-0.4s0.2-0.6,0.2-1V16.1z"/>
	<path class="PTScoreLow" d="M72.8,17.1l0.6-3h0.9l-0.9,4.3h-0.9l-0.7-2.9L71,18.3h-0.9L69.2,14h0.9l0.6,3l0.7-3h0.7L72.8,17.1z"/>
</g>
	
<rect x="90" class="st4-measure" width="45" height="23.9"/>
<rect x="90" class="PTScoreModerate" width="45" height="10"/>
<text transform="matrix(1 0 0 1 113 6.7498)" class="st4-measure" text-anchor="middle">200—299</text>
<rect x="90" y="22.1" class="PTScoreModerate" width="45" height="1.9"/>
<g>
	<path class="PTScoreModerate" d="M95.5,14l1.1,3.1l1.1-3.1h1.2v4.3h-0.9v-1.2l0.1-2l-1.2,3.2h-0.6l-1.1-3.2l0.1,2v1.2h-0.9V14H95.5z"/>
	<path class="PTScoreModerate" d="M104,16.3c0,0.3,0,0.6-0.1,0.9s-0.2,0.5-0.4,0.7c-0.2,0.2-0.4,0.3-0.6,0.4c-0.2,0.1-0.5,0.1-0.7,0.1
		s-0.5,0-0.7-0.1c-0.2-0.1-0.4-0.2-0.6-0.4c-0.2-0.2-0.3-0.4-0.4-0.7s-0.1-0.6-0.1-0.9v-0.2c0-0.3,0-0.6,0.1-0.9s0.2-0.5,0.4-0.7
		s0.4-0.3,0.6-0.4c0.2-0.1,0.5-0.1,0.7-0.1s0.5,0,0.7,0.1c0.2,0.1,0.4,0.2,0.6,0.4s0.3,0.4,0.4,0.7c0.1,0.3,0.1,0.6,0.1,0.9V16.3z
		 M103.1,16.1c0-0.4-0.1-0.8-0.2-1s-0.4-0.3-0.7-0.3s-0.5,0.1-0.7,0.3s-0.2,0.6-0.2,1v0.2c0,0.2,0,0.4,0.1,0.6s0.1,0.3,0.2,0.4
		c0.1,0.1,0.2,0.2,0.3,0.3c0.1,0.1,0.2,0.1,0.4,0.1c0.3,0,0.5-0.1,0.7-0.4s0.2-0.6,0.2-1V16.1z"/>
	<path class="PTScoreModerate" d="M105.5,18.3V14h1.3c0.3,0,0.5,0,0.8,0.1s0.4,0.2,0.6,0.4c0.2,0.2,0.3,0.4,0.4,0.6s0.1,0.5,0.1,0.8v0.2
		c0,0.3,0,0.6-0.1,0.8c-0.1,0.2-0.2,0.5-0.4,0.6c-0.2,0.2-0.4,0.3-0.6,0.4s-0.5,0.1-0.8,0.1H105.5z M106.4,14.7v2.8h0.4
		c0.3,0,0.6-0.1,0.8-0.3c0.2-0.2,0.3-0.6,0.3-1v-0.2c0-0.4-0.1-0.8-0.3-1c-0.2-0.2-0.4-0.3-0.8-0.3H106.4z"/>
	<path class="PTScoreModerate" d="M112.9,16.5h-1.7v1.1h2v0.7h-2.9V14h2.9v0.7h-2v1h1.7V16.5z"/>
	<path class="PTScoreModerate" d="M116.1,16.7h-0.7v1.6h-0.9V14h1.6c0.2,0,0.5,0,0.7,0.1c0.2,0.1,0.4,0.1,0.5,0.2c0.1,0.1,0.2,0.2,0.3,0.4
		s0.1,0.3,0.1,0.6c0,0.2,0,0.3-0.1,0.4c0,0.1-0.1,0.2-0.2,0.3c-0.1,0.1-0.1,0.2-0.2,0.3s-0.2,0.1-0.3,0.2l0.9,1.7v0h-0.9L116.1,16.7
		z M115.4,16h0.7c0.1,0,0.2,0,0.3,0s0.2-0.1,0.2-0.1c0.1-0.1,0.1-0.1,0.1-0.2s0-0.2,0-0.3c0-0.2-0.1-0.4-0.2-0.5
		c-0.1-0.1-0.3-0.2-0.5-0.2h-0.7V16z"/>
	<path class="PTScoreModerate" d="M121.7,17.4h-1.5l-0.3,0.9h-0.9l1.6-4.3h0.8l1.6,4.3H122L121.7,17.4z M120.4,16.7h1.1l-0.5-1.6L120.4,16.7z"
		/>
	<path class="PTScoreModerate" d="M127.1,14.7h-1.3v3.6h-0.9v-3.6h-1.3V14h3.5V14.7z"/>
	<path class="PTScoreModerate" d="M131.1,16.5h-1.7v1.1h2v0.7h-2.9V14h2.9v0.7h-2v1h1.7V16.5z"/>
</g>
	
<rect x="136" class="st4-measure" width="43.9" height="23.9"/>
<rect x="136" class="PTScoreElevated" width="43.9" height="10"/>
<text transform="matrix(1 0 0 1 158 6.7498)" class="st4-measure" text-anchor="middle">300—399</text>
<rect x="136" y="22.1" class="PTScoreElevated" width="43.9" height="1.9"/>
<g>
	<path class="PTScoreElevated" d="M143.9,16.5h-1.7v1.1h2v0.7h-2.9V14h2.9v0.7h-2v1h1.7V16.5z"/>
	<path class="PTScoreElevated" d="M146.4,17.6h1.9v0.7h-2.7V14h0.9V17.6z"/>
	<path class="PTScoreElevated" d="M152.3,16.5h-1.7v1.1h2v0.7h-2.9V14h2.9v0.7h-2v1h1.7V16.5z"/>
	<path class="PTScoreElevated" d="M155.6,17.2l1-3.2h1l-1.5,4.3h-0.9l-1.5-4.3h1L155.6,17.2z"/>
	<path class="PTScoreElevated" d="M161,17.4h-1.5l-0.3,0.9h-0.9l1.6-4.3h0.8l1.6,4.3h-0.9L161,17.4z M159.7,16.7h1.1l-0.5-1.6L159.7,16.7z"/>
	<path class="PTScoreElevated" d="M166.4,14.7h-1.3v3.6h-0.9v-3.6h-1.3V14h3.5V14.7z"/>
	<path class="PTScoreElevated" d="M170.3,16.5h-1.7v1.1h2v0.7h-2.9V14h2.9v0.7h-2v1h1.7V16.5z"/>
	<path class="PTScoreElevated" d="M172.1,18.3V14h1.3c0.3,0,0.5,0,0.8,0.1s0.4,0.2,0.6,0.4c0.2,0.2,0.3,0.4,0.4,0.6s0.1,0.5,0.1,0.8v0.2
		c0,0.3,0,0.6-0.1,0.8c-0.1,0.2-0.2,0.5-0.4,0.6c-0.2,0.2-0.4,0.3-0.6,0.4s-0.5,0.1-0.8,0.1H172.1z M172.9,14.7v2.8h0.4
		c0.3,0,0.6-0.1,0.8-0.3c0.2-0.2,0.3-0.6,0.3-1v-0.2c0-0.4-0.1-0.8-0.3-1c-0.2-0.2-0.4-0.3-0.8-0.3H172.9z"/>
</g>
	
<rect x="181" class="st4-measure" width="43.9" height="23.9"/>
<rect x="181" class="PTScoreHigh" width="43.9" height="10"/>
<text transform="matrix(1 0 0 1 204 6.7498)" class="st4-measure" text-anchor="middle">400+</text>
<rect x="181" y="22.1" class="PTScoreHigh" width="43.9" height="1.9"/>
<g>
	<path class="PTScoreHigh" d="M198.5,18.3h-0.9v-1.8H196v1.8h-0.9V14h0.9v1.7h1.7V14h0.9V18.3z"/>
	<path class="PTScoreHigh" d="M201.1,18.3h-0.9V14h0.9V18.3z"/>
	<path class="PTScoreHigh" d="M206.2,17.8c-0.1,0.1-0.1,0.1-0.2,0.2s-0.2,0.1-0.3,0.2s-0.3,0.1-0.5,0.1c-0.2,0-0.4,0.1-0.6,0.1
		c-0.3,0-0.5,0-0.8-0.1c-0.2-0.1-0.4-0.2-0.6-0.4s-0.3-0.4-0.4-0.6s-0.1-0.5-0.1-0.9V16c0-0.3,0-0.6,0.1-0.9
		c0.1-0.3,0.2-0.5,0.4-0.6c0.2-0.2,0.3-0.3,0.6-0.4s0.5-0.1,0.7-0.1c0.3,0,0.5,0,0.7,0.1c0.2,0.1,0.4,0.2,0.5,0.3
		c0.1,0.1,0.2,0.3,0.3,0.4s0.1,0.4,0.1,0.6h-0.9c0-0.1,0-0.2-0.1-0.3c0-0.1-0.1-0.2-0.2-0.2c-0.1-0.1-0.1-0.1-0.2-0.1
		c-0.1,0-0.2,0-0.3,0c-0.3,0-0.5,0.1-0.7,0.3s-0.2,0.6-0.2,1v0.3c0,0.4,0.1,0.8,0.3,1s0.4,0.3,0.7,0.3c0.1,0,0.2,0,0.3,0
		s0.1,0,0.2-0.1c0.1,0,0.1,0,0.1-0.1c0,0,0.1,0,0.1-0.1v-0.7h-0.8v-0.6h1.7V17.8z"/>
	<path class="PTScoreHigh" d="M211.3,18.3h-0.9v-1.8h-1.7v1.8h-0.9V14h0.9v1.7h1.7V14h0.9V18.3z"/>
</g>
</svg>
