<?xml version="1.0" encoding="utf-8"?>
<!-- Generator: Adobe Illustrator 21.0.2, SVG Export Plug-In . SVG Version: 6.00 Build 0)  -->
<svg version="1.1" id="Layer_1-camels" data-name="Layer 1" xmlns="http://www.w3.org/2000/svg" xmlns:xlink="http://www.w3.org/1999/xlink" x="0px" y="0px" viewBox="0 0 226.15 51.35" xml:space="preserve">
    <style type="text/css">
	.st0-camels {fill: #807E82;}
	.st1-camels, .st3-camels {fill: none;}
	.st1-camels {stroke: #A7A9AB; stroke-width: 2.5px;}
	.st2-camels {fill: #A7A9AB;}
	.st3-camels {stroke: #fff; stroke-width: 0.8px;}
    </style>
  <title>model-camels-compare</title>
  <path class="st0-camels" d="M148.39,26.06h.6a.85.85,0,0,0,.64-.21.79.79,0,0,0,.21-.57.88.88,0,0,0,0-.29.61.61,0,0,0-.14-.23.68.68,0,0,0-.24-.15,1,1,0,0,0-.34-.05.93.93,0,0,0-.29,0,.75.75,0,0,0-.24.13.58.58,0,0,0-.22.47h-1.13a1.38,1.38,0,0,1,.15-.64,1.47,1.47,0,0,1,.4-.49,1.88,1.88,0,0,1,.59-.31,2.32,2.32,0,0,1,.73-.11,2.78,2.78,0,0,1,.78.1,1.75,1.75,0,0,1,.61.31,1.41,1.41,0,0,1,.39.51,1.65,1.65,0,0,1,.14.7,1.23,1.23,0,0,1-.06.36,1.26,1.26,0,0,1-.17.34,1.59,1.59,0,0,1-.27.29,1.62,1.62,0,0,1-.37.23,1.33,1.33,0,0,1,1,1.33,1.6,1.6,0,0,1-.15.71,1.52,1.52,0,0,1-.42.53,1.91,1.91,0,0,1-.64.32,2.76,2.76,0,0,1-.8.11,2.6,2.6,0,0,1-.71-.1,1.85,1.85,0,0,1-.62-.3,1.53,1.53,0,0,1-.44-.51,1.5,1.5,0,0,1-.17-.73h1.13a.67.67,0,0,0,.24.52.83.83,0,0,0,.26.15,1,1,0,0,0,.33.05,1.12,1.12,0,0,0,.36-.05.75.75,0,0,0,.27-.16.7.7,0,0,0,.17-.25.83.83,0,0,0,.06-.32,1.05,1.05,0,0,0-.06-.39.65.65,0,0,0-.19-.26.8.8,0,0,0-.29-.15,1.46,1.46,0,0,0-.39,0h-.6Z"/>
  <g>
    <path class="st0-camels" d="M158.6,27.53a2.5,2.5,0,0,1-.12.8,1.73,1.73,0,0,1-.34.6,1.49,1.49,0,0,1-.53.38,1.78,1.78,0,0,1-1.35,0,1.53,1.53,0,0,1-.53-.38,1.74,1.74,0,0,1-.35-.6,2.45,2.45,0,0,1-.12-.8v-.17a2.46,2.46,0,0,1,.12-.8,1.76,1.76,0,0,1,.34-.61,1.48,1.48,0,0,1,.53-.38,1.78,1.78,0,0,1,1.35,0,1.48,1.48,0,0,1,.53.38,1.76,1.76,0,0,1,.34.61,2.46,2.46,0,0,1,.12.8Zm-.82-.18a1.65,1.65,0,0,0-.22-.93.78.78,0,0,0-1.26,0,1.65,1.65,0,0,0-.22.93v.18a2.25,2.25,0,0,0,.06.54,1.19,1.19,0,0,0,.17.39.73.73,0,0,0,.27.24.78.78,0,0,0,.36.08.71.71,0,0,0,.63-.32,1.68,1.68,0,0,0,.22-.94Z"/>
    <path class="st0-camels" d="M161.45,28h-.64V29.4H160V25.49h1.45a2.23,2.23,0,0,1,.61.08,1.31,1.31,0,0,1,.46.23,1,1,0,0,1,.28.37,1.22,1.22,0,0,1,.1.51,1.38,1.38,0,0,1,0,.39,1,1,0,0,1-.14.3,1,1,0,0,1-.22.23,1.4,1.4,0,0,1-.29.17l.85,1.6v0h-.87Zm-.64-.65h.65a.83.83,0,0,0,.28,0,.52.52,0,0,0,.2-.12.49.49,0,0,0,.12-.18.65.65,0,0,0,0-.24.59.59,0,0,0-.16-.44.65.65,0,0,0-.48-.16h-.65Z"/>
  </g>
  <path class="st0-camels" d="M170.12,27.26h.64v.91h-.64V29.4H169V28.17h-2.33l-.05-.71L169,23.71h1.14Zm-2.39,0H169v-2l-.07.13Z"/>
  <g>
    <path class="st0-camels" d="M149.56,36.1a1.56,1.56,0,0,1-.13.55,1.25,1.25,0,0,1-.31.43,1.43,1.43,0,0,1-.48.28,1.92,1.92,0,0,1-.65.1,1.67,1.67,0,0,1-.67-.13,1.37,1.37,0,0,1-.51-.37,1.71,1.71,0,0,1-.32-.59,2.56,2.56,0,0,1-.11-.78v-.26a2.51,2.51,0,0,1,.12-.78,1.74,1.74,0,0,1,.33-.59,1.41,1.41,0,0,1,.51-.38,1.66,1.66,0,0,1,.67-.13,1.86,1.86,0,0,1,.65.1,1.4,1.4,0,0,1,.48.29,1.29,1.29,0,0,1,.3.44,1.81,1.81,0,0,1,.14.55h-.81a1.18,1.18,0,0,0-.06-.31.62.62,0,0,0-.13-.23.56.56,0,0,0-.23-.14,1.07,1.07,0,0,0-.34,0,.69.69,0,0,0-.61.3,1.68,1.68,0,0,0-.2.92v.26a2.83,2.83,0,0,0,0,.53,1.15,1.15,0,0,0,.14.38.62.62,0,0,0,.25.23.8.8,0,0,0,.37.08,1.1,1.1,0,0,0,.33,0,.56.56,0,0,0,.38-.35,1.14,1.14,0,0,0,.06-.31Z"/>
    <path class="st0-camels" d="M153.12,36.59h-1.41l-.27.81h-.86L152,33.49h.75l1.46,3.91h-.86Zm-1.2-.65h1l-.49-1.46Z"/>
    <path class="st0-camels" d="M156.49,33.49l1,2.84,1-2.84h1.06V37.4h-.81V36.33l.08-1.85-1.05,2.91h-.55l-1.05-2.91.08,1.84V37.4h-.8V33.49Z"/>
    <path class="st0-camels" d="M163.43,35.71h-1.55v1h1.82v.65h-2.62V33.49h2.62v.65h-1.81v.93h1.55Z"/>
    <path class="st0-camels" d="M165.8,36.75h1.71v.65H165V33.49h.8Z"/>
    <path class="st0-camels" d="M170.82,36.37a.55.55,0,0,0,0-.18.37.37,0,0,0-.12-.15,1,1,0,0,0-.23-.14l-.38-.14a4.78,4.78,0,0,1-.51-.19,1.89,1.89,0,0,1-.42-.25,1.16,1.16,0,0,1-.28-.34.93.93,0,0,1-.1-.45,1,1,0,0,1,.11-.45,1,1,0,0,1,.3-.34,1.49,1.49,0,0,1,.46-.22,2,2,0,0,1,.58-.08,1.83,1.83,0,0,1,.59.09,1.36,1.36,0,0,1,.46.25,1.12,1.12,0,0,1,.29.38,1.14,1.14,0,0,1,.1.48h-.81a.66.66,0,0,0,0-.23.47.47,0,0,0-.12-.18.56.56,0,0,0-.2-.12.86.86,0,0,0-.29,0,1,1,0,0,0-.28,0,.56.56,0,0,0-.19.1.4.4,0,0,0-.12.15.42.42,0,0,0,0,.18.38.38,0,0,0,.2.32,2.21,2.21,0,0,0,.58.24,3.78,3.78,0,0,1,.56.22,1.66,1.66,0,0,1,.41.27,1.05,1.05,0,0,1,.25.34,1.09,1.09,0,0,1,.08.43,1,1,0,0,1-.1.46.94.94,0,0,1-.29.34,1.36,1.36,0,0,1-.45.21,2.13,2.13,0,0,1-.58.07,2.25,2.25,0,0,1-.39,0,1.93,1.93,0,0,1-.37-.1,1.63,1.63,0,0,1-.33-.17,1.23,1.23,0,0,1-.26-.25,1.1,1.1,0,0,1-.17-.32,1.2,1.2,0,0,1-.06-.4h.81a.73.73,0,0,0,.05.3.51.51,0,0,0,.16.2.64.64,0,0,0,.24.11,1.39,1.39,0,0,0,.32,0,1,1,0,0,0,.27,0,.56.56,0,0,0,.19-.09.35.35,0,0,0,.11-.14A.44.44,0,0,0,170.82,36.37Z"/>
  </g>
  <g>
    <path class="st0-camels" d="M142,44.1a1.65,1.65,0,0,1-.13.55,1.28,1.28,0,0,1-.31.43,1.42,1.42,0,0,1-.48.28,1.92,1.92,0,0,1-.65.1,1.68,1.68,0,0,1-.68-.13,1.38,1.38,0,0,1-.51-.37,1.7,1.7,0,0,1-.32-.59,2.56,2.56,0,0,1-.11-.78v-.26a2.45,2.45,0,0,1,.12-.78,1.71,1.71,0,0,1,.33-.59,1.41,1.41,0,0,1,.51-.38,1.65,1.65,0,0,1,.67-.13,1.86,1.86,0,0,1,.65.1,1.38,1.38,0,0,1,.48.29,1.32,1.32,0,0,1,.31.44,1.87,1.87,0,0,1,.14.55h-.8a1.26,1.26,0,0,0-.06-.31.6.6,0,0,0-.14-.23.56.56,0,0,0-.23-.14,1.08,1.08,0,0,0-.34,0,.68.68,0,0,0-.61.3,1.68,1.68,0,0,0-.2.92v.26a2.83,2.83,0,0,0,0,.53,1.1,1.1,0,0,0,.14.38.6.6,0,0,0,.25.23.82.82,0,0,0,.37.08,1.09,1.09,0,0,0,.33,0,.55.55,0,0,0,.38-.35,1,1,0,0,0,.06-.31Z"/>
    <path class="st0-camels" d="M146.32,43.54a2.5,2.5,0,0,1-.12.8,1.73,1.73,0,0,1-.34.6,1.49,1.49,0,0,1-.53.38,1.78,1.78,0,0,1-1.35,0,1.53,1.53,0,0,1-.53-.38,1.74,1.74,0,0,1-.35-.6,2.45,2.45,0,0,1-.12-.8v-.17a2.46,2.46,0,0,1,.12-.8,1.76,1.76,0,0,1,.34-.61,1.48,1.48,0,0,1,.53-.38,1.78,1.78,0,0,1,1.35,0,1.48,1.48,0,0,1,.53.38,1.76,1.76,0,0,1,.34.61,2.46,2.46,0,0,1,.12.8Zm-.82-.18a1.65,1.65,0,0,0-.22-.93.78.78,0,0,0-1.26,0,1.65,1.65,0,0,0-.22.93v.18a2.25,2.25,0,0,0,.06.54,1.19,1.19,0,0,0,.17.39.73.73,0,0,0,.27.24.78.78,0,0,0,.36.08.71.71,0,0,0,.63-.32,1.68,1.68,0,0,0,.22-.94Z"/>
    <path class="st0-camels" d="M148.5,41.49l1,2.84,1-2.84h1.06V45.4h-.81V44.33l.08-1.85-1.05,2.91h-.55l-1.05-2.91.08,1.84V45.4h-.8V41.49Z"/>
    <path class="st0-camels" d="M153.62,44V45.4h-.8V41.49h1.53a1.84,1.84,0,0,1,.62.1,1.35,1.35,0,0,1,.46.27,1.16,1.16,0,0,1,.29.41,1.32,1.32,0,0,1,.1.52,1.27,1.27,0,0,1-.1.51,1.05,1.05,0,0,1-.29.39,1.35,1.35,0,0,1-.46.25,2,2,0,0,1-.62.09Zm0-.65h.72a.91.91,0,0,0,.29,0,.54.54,0,0,0,.21-.12A.47.47,0,0,0,155,43a.69.69,0,0,0,0-.23.78.78,0,0,0,0-.24.59.59,0,0,0-.12-.21.57.57,0,0,0-.21-.14.75.75,0,0,0-.29-.05h-.72Z"/>
    <path class="st0-camels" d="M158.64,44.6h-1.41l-.27.81h-.86l1.46-3.91h.75l1.46,3.91h-.86Zm-1.2-.65h1l-.49-1.46Z"/>
    <path class="st0-camels" d="M162.13,44h-.64V45.4h-.8V41.49h1.45a2.24,2.24,0,0,1,.61.08,1.3,1.3,0,0,1,.45.23,1,1,0,0,1,.29.37,1.22,1.22,0,0,1,.1.51,1.46,1.46,0,0,1,0,.39,1,1,0,0,1-.36.54,1.42,1.42,0,0,1-.29.17l.85,1.6v0h-.87Zm-.64-.65h.65a.84.84,0,0,0,.28,0,.52.52,0,0,0,.2-.12.47.47,0,0,0,.12-.18.65.65,0,0,0,0-.24.6.6,0,0,0-.16-.44.66.66,0,0,0-.48-.16h-.65Z"/>
    <path class="st0-camels" d="M166.95,44.6h-1.41l-.27.81h-.86l1.46-3.91h.75l1.46,3.91h-.86Zm-1.2-.65h1l-.49-1.46Z"/>
    <path class="st0-camels" d="M169,45.4V41.49h1.37a2.63,2.63,0,0,1,.61.06,1.29,1.29,0,0,1,.46.2.89.89,0,0,1,.29.33,1.09,1.09,0,0,1,.1.48,1,1,0,0,1,0,.26.84.84,0,0,1-.1.23.8.8,0,0,1-.17.19.89.89,0,0,1-.25.14.84.84,0,0,1,.29.13.8.8,0,0,1,.2.2.85.85,0,0,1,.12.25,1.11,1.11,0,0,1,0,.28,1,1,0,0,1-.37.86,1.65,1.65,0,0,1-1,.29Zm.8-2.27h.6a.73.73,0,0,0,.46-.13.43.43,0,0,0,.15-.36.45.45,0,0,0-.15-.38.81.81,0,0,0-.49-.12h-.56Zm0,.57v1.06h.69a.82.82,0,0,0,.27,0,.53.53,0,0,0,.19-.11.4.4,0,0,0,.11-.16.52.52,0,0,0,0-.2.75.75,0,0,0,0-.23.45.45,0,0,0-.1-.17.46.46,0,0,0-.18-.11.8.8,0,0,0-.26,0Z"/>
    <path class="st0-camels" d="M173.85,44.76h1.71v.65H173V41.49h.8Z"/>
    <path class="st0-camels" d="M178.93,43.71h-1.55v1h1.82v.65h-2.62V41.49h2.62v.65h-1.81v.93h1.55Z"/>
  </g>
  <rect class="st0-camels" x="137.34" y="48.83" width="43" height="2.52"/>
  <line class="st1-camels" x1="159.6" y1="0.18" x2="159.6" y2="9.38"/>
  <g>
    <path class="st2-camels" d="M164.12,5.94l-4.19,11.36-.39,1-.38-1L155.08,5.94l-.31-.87.85.35L159.36,7l4.24-1.57.83-.31Z"/>
    <path class="st3-camels" d="M164.12,5.94l-4.19,11.36-.39,1-.38-1L155.08,5.94l-.31-.87.85.35L159.36,7l4.24-1.57.83-.31Z"/>
  </g>
  <path class="st0-camels" d="M58.22,29.33H57.09V25l-1.35.42v-.92l2.36-.84h.12Z"/>
  <g>
    <path class="st0-camels" d="M66.44,27.46a2.5,2.5,0,0,1-.12.8,1.73,1.73,0,0,1-.34.6,1.48,1.48,0,0,1-.53.38,1.78,1.78,0,0,1-1.35,0,1.52,1.52,0,0,1-.53-.38,1.76,1.76,0,0,1-.35-.6,2.45,2.45,0,0,1-.12-.8v-.17a2.49,2.49,0,0,1,.12-.8,1.78,1.78,0,0,1,.34-.61,1.48,1.48,0,0,1,.53-.38,1.78,1.78,0,0,1,1.35,0,1.48,1.48,0,0,1,.53.38,1.78,1.78,0,0,1,.34.61,2.49,2.49,0,0,1,.12.8Zm-.82-.18a1.64,1.64,0,0,0-.22-.93.78.78,0,0,0-1.26,0,1.64,1.64,0,0,0-.22.93v.18A2.3,2.3,0,0,0,64,28a1.21,1.21,0,0,0,.17.39.72.72,0,0,0,.27.24.77.77,0,0,0,.36.08.71.71,0,0,0,.63-.32,1.68,1.68,0,0,0,.22-.94Z"/>
    <path class="st0-camels" d="M69.29,27.89h-.64v1.43h-.81V25.42H69.3a2.23,2.23,0,0,1,.61.08,1.29,1.29,0,0,1,.45.23,1,1,0,0,1,.29.37,1.22,1.22,0,0,1,.1.51,1.42,1.42,0,0,1,0,.39,1,1,0,0,1-.14.3,1,1,0,0,1-.22.23,1.41,1.41,0,0,1-.29.17l.85,1.6v0H70Zm-.64-.65h.65a.83.83,0,0,0,.28,0,.52.52,0,0,0,.2-.12.5.5,0,0,0,.12-.18.67.67,0,0,0,0-.24.59.59,0,0,0-.16-.44.66.66,0,0,0-.48-.16h-.65Z"/>
  </g>
  <path class="st0-camels" d="M78.52,29.33h-3.9v-.77l1.84-2q.21-.23.35-.41a3.06,3.06,0,0,0,.23-.34,1.35,1.35,0,0,0,.13-.29,1,1,0,0,0,0-.26.87.87,0,0,0-.19-.6.69.69,0,0,0-.55-.22.83.83,0,0,0-.35.07.71.71,0,0,0-.26.2.88.88,0,0,0-.16.3,1.26,1.26,0,0,0-.05.38H74.5a1.91,1.91,0,0,1,.14-.72,1.72,1.72,0,0,1,.39-.59,1.88,1.88,0,0,1,.62-.4,2.17,2.17,0,0,1,.82-.15,2.6,2.6,0,0,1,.79.11,1.61,1.61,0,0,1,.58.32,1.33,1.33,0,0,1,.36.51,1.81,1.81,0,0,1,.12.68,1.71,1.71,0,0,1-.09.55,2.63,2.63,0,0,1-.25.53,4.39,4.39,0,0,1-.4.54q-.23.27-.52.56l-1,1.06h2.45Z"/>
  <g>
    <path class="st0-camels" d="M58,36a1.65,1.65,0,0,1-.13.55,1.28,1.28,0,0,1-.31.43,1.42,1.42,0,0,1-.48.28,1.91,1.91,0,0,1-.65.1,1.68,1.68,0,0,1-.68-.13,1.38,1.38,0,0,1-.51-.37,1.71,1.71,0,0,1-.32-.59,2.56,2.56,0,0,1-.11-.78v-.26a2.46,2.46,0,0,1,.12-.78,1.71,1.71,0,0,1,.33-.59,1.41,1.41,0,0,1,.51-.38,1.65,1.65,0,0,1,.67-.13,1.86,1.86,0,0,1,.65.1,1.38,1.38,0,0,1,.48.29,1.32,1.32,0,0,1,.31.44,1.84,1.84,0,0,1,.14.55h-.8a1.26,1.26,0,0,0-.06-.31.61.61,0,0,0-.14-.23.57.57,0,0,0-.23-.14,1.08,1.08,0,0,0-.34,0,.68.68,0,0,0-.61.3,1.68,1.68,0,0,0-.2.92v.26a2.84,2.84,0,0,0,0,.53,1.1,1.1,0,0,0,.14.38.61.61,0,0,0,.25.23.81.81,0,0,0,.37.08,1.09,1.09,0,0,0,.33,0,.56.56,0,0,0,.38-.35,1.07,1.07,0,0,0,.06-.31Z"/>
    <path class="st0-camels" d="M61.59,36.52H60.18l-.27.81h-.86l1.46-3.91h.75l1.46,3.91h-.86Zm-1.2-.65h1l-.49-1.46Z"/>
    <path class="st0-camels" d="M65,33.42l1,2.84,1-2.84H68v3.91h-.81V36.26l.08-1.85-1.05,2.91h-.55l-1.05-2.91.08,1.84v1.07h-.81V33.42Z"/>
    <path class="st0-camels" d="M71.9,35.63H70.36v1h1.82v.65H69.55V33.42h2.62v.65H70.36V35H71.9Z"/>
    <path class="st0-camels" d="M74.27,36.68H76v.65H73.46V33.42h.81Z"/>
    <path class="st0-camels" d="M79.29,36.3a.55.55,0,0,0,0-.18.35.35,0,0,0-.11-.15,1,1,0,0,0-.23-.14l-.38-.14a4.78,4.78,0,0,1-.51-.19,1.88,1.88,0,0,1-.42-.25,1.14,1.14,0,0,1-.28-.34.93.93,0,0,1-.1-.45.94.94,0,0,1,.11-.45,1,1,0,0,1,.3-.34,1.49,1.49,0,0,1,.46-.22,2,2,0,0,1,.58-.08,1.84,1.84,0,0,1,.59.09,1.37,1.37,0,0,1,.45.25,1.11,1.11,0,0,1,.29.38,1.14,1.14,0,0,1,.1.48h-.8a.66.66,0,0,0,0-.23.47.47,0,0,0-.12-.18.55.55,0,0,0-.2-.12.86.86,0,0,0-.28,0,1,1,0,0,0-.28,0,.56.56,0,0,0-.19.1.41.41,0,0,0-.15.32.38.38,0,0,0,.2.32,2.21,2.21,0,0,0,.58.24,3.78,3.78,0,0,1,.56.22,1.7,1.7,0,0,1,.41.27,1,1,0,0,1,.33.78,1,1,0,0,1-.1.46,1,1,0,0,1-.29.34,1.32,1.32,0,0,1-.45.21,2.12,2.12,0,0,1-.58.07,2.25,2.25,0,0,1-.39,0,1.91,1.91,0,0,1-.37-.1,1.61,1.61,0,0,1-.33-.17,1.23,1.23,0,0,1-.26-.25,1.1,1.1,0,0,1-.17-.32,1.2,1.2,0,0,1-.06-.4h.81a.72.72,0,0,0,.06.3.51.51,0,0,0,.16.2.65.65,0,0,0,.24.11,1.38,1.38,0,0,0,.32,0,1,1,0,0,0,.27,0,.57.57,0,0,0,.19-.09.37.37,0,0,0,.11-.14A.44.44,0,0,0,79.29,36.3Z"/>
  </g>
  <g>
    <path class="st0-camels" d="M50.5,44a1.65,1.65,0,0,1-.13.55,1.28,1.28,0,0,1-.31.43,1.42,1.42,0,0,1-.48.28,1.91,1.91,0,0,1-.65.1,1.68,1.68,0,0,1-.68-.13,1.38,1.38,0,0,1-.51-.37,1.71,1.71,0,0,1-.32-.59,2.56,2.56,0,0,1-.11-.78v-.26a2.46,2.46,0,0,1,.12-.78,1.71,1.71,0,0,1,.33-.59,1.41,1.41,0,0,1,.51-.38,1.65,1.65,0,0,1,.67-.13,1.86,1.86,0,0,1,.65.1,1.38,1.38,0,0,1,.48.29,1.32,1.32,0,0,1,.31.44,1.84,1.84,0,0,1,.14.55h-.8a1.26,1.26,0,0,0-.06-.31.61.61,0,0,0-.14-.23.57.57,0,0,0-.23-.14,1.08,1.08,0,0,0-.34,0,.68.68,0,0,0-.61.3,1.68,1.68,0,0,0-.2.92v.26a2.84,2.84,0,0,0,0,.53,1.1,1.1,0,0,0,.14.38.61.61,0,0,0,.25.23.81.81,0,0,0,.37.08,1.09,1.09,0,0,0,.33,0,.56.56,0,0,0,.38-.35A1.07,1.07,0,0,0,49.7,44Z"/>
    <path class="st0-camels" d="M54.79,43.46a2.5,2.5,0,0,1-.12.8,1.74,1.74,0,0,1-.34.6,1.5,1.5,0,0,1-.53.38,1.78,1.78,0,0,1-1.35,0,1.5,1.5,0,0,1-.53-.38,1.74,1.74,0,0,1-.35-.6,2.45,2.45,0,0,1-.12-.8v-.17a2.49,2.49,0,0,1,.12-.8,1.8,1.8,0,0,1,.34-.61,1.48,1.48,0,0,1,.53-.38,1.78,1.78,0,0,1,1.35,0,1.47,1.47,0,0,1,.53.38,1.78,1.78,0,0,1,.34.61,2.46,2.46,0,0,1,.12.8ZM54,43.28a1.65,1.65,0,0,0-.22-.93.78.78,0,0,0-1.26,0,1.64,1.64,0,0,0-.22.93v.18a2.31,2.31,0,0,0,.06.54,1.23,1.23,0,0,0,.17.39.73.73,0,0,0,.27.24.77.77,0,0,0,.36.08.71.71,0,0,0,.63-.32,1.68,1.68,0,0,0,.22-.94Z"/>
    <path class="st0-camels" d="M57,41.42l1,2.84,1-2.84H60v3.91h-.81V44.26l.08-1.85-1.05,2.91H57.7l-1.05-2.91.08,1.84v1.07h-.81V41.42Z"/>
    <path class="st0-camels" d="M62.09,44v1.38h-.8V41.42h1.53a1.85,1.85,0,0,1,.62.1,1.33,1.33,0,0,1,.46.27,1.16,1.16,0,0,1,.29.41,1.32,1.32,0,0,1,.1.52,1.27,1.27,0,0,1-.1.51,1.05,1.05,0,0,1-.29.39,1.33,1.33,0,0,1-.46.25,2,2,0,0,1-.62.09Zm0-.65h.72a.93.93,0,0,0,.3,0,.55.55,0,0,0,.2-.12.47.47,0,0,0,.12-.18.69.69,0,0,0,0-.23.78.78,0,0,0,0-.24.59.59,0,0,0-.12-.21.58.58,0,0,0-.2-.14.76.76,0,0,0-.3-.05h-.72Z"/>
    <path class="st0-camels" d="M67.11,44.52H65.7l-.27.81h-.86L66,41.42h.75l1.46,3.91h-.86Zm-1.2-.65h1l-.49-1.46Z"/>
    <path class="st0-camels" d="M70.6,43.9H70v1.43h-.81V41.42h1.45a2.24,2.24,0,0,1,.61.08,1.3,1.3,0,0,1,.45.23,1,1,0,0,1,.29.37,1.22,1.22,0,0,1,.1.51A1.46,1.46,0,0,1,72,43a1,1,0,0,1-.14.3,1,1,0,0,1-.22.23,1.42,1.42,0,0,1-.29.17l.85,1.6v0h-.86ZM70,43.24h.65a.83.83,0,0,0,.28,0,.52.52,0,0,0,.2-.12.48.48,0,0,0,.12-.18.67.67,0,0,0,0-.24.6.6,0,0,0-.16-.44.66.66,0,0,0-.48-.16H70Z"/>
    <path class="st0-camels" d="M75.42,44.52H74l-.27.81h-.86l1.46-3.91h.75l1.46,3.91h-.86Zm-1.2-.65h1l-.49-1.46Z"/>
    <path class="st0-camels" d="M77.46,45.33V41.42h1.37a2.62,2.62,0,0,1,.61.06,1.31,1.31,0,0,1,.46.2.88.88,0,0,1,.28.33,1.08,1.08,0,0,1,.1.48,1,1,0,0,1,0,.26.83.83,0,0,1-.28.43.86.86,0,0,1-.25.14.86.86,0,0,1,.29.13.79.79,0,0,1,.2.2.83.83,0,0,1,.12.25,1.07,1.07,0,0,1,0,.28A1,1,0,0,1,80,45a1.65,1.65,0,0,1-1,.29Zm.81-2.27h.6a.73.73,0,0,0,.46-.13.44.44,0,0,0,.15-.36.45.45,0,0,0-.15-.38.81.81,0,0,0-.49-.12h-.56Zm0,.57v1.06H79a.82.82,0,0,0,.27,0,.53.53,0,0,0,.19-.11.42.42,0,0,0,.11-.16.56.56,0,0,0,0-.2.75.75,0,0,0,0-.23.44.44,0,0,0-.1-.17.45.45,0,0,0-.18-.11.81.81,0,0,0-.26,0Z"/>
    <path class="st0-camels" d="M82.32,44.68H84v.65H81.52V41.42h.81Z"/>
    <path class="st0-camels" d="M87.4,43.63H85.85v1h1.82v.65H85V41.42h2.62v.65H85.85V43H87.4Z"/>
  </g>
  <rect class="st0-camels" x="45.81" y="48.83" width="43" height="2.52"/>
  <line class="st1-camels" x1="67.76" y1="0.18" x2="67.76" y2="9.38"/>
  <g>
    <path class="st2-camels" d="M72.28,5.94,68.09,17.31l-.39,1-.38-1L63.23,5.94l-.31-.87.85.35L67.52,7l4.24-1.57.83-.31Z"/>
    <path class="st3-camels" d="M72.28,5.94,68.09,17.31l-.39,1-.38-1L63.23,5.94l-.31-.87.85.35L67.52,7l4.24-1.57.83-.31Z"/>
  </g>
  <path class="st0-camels" d="M196,27.26h.64v.91H196V29.4h-1.13V28.17h-2.33l-.05-.71,2.37-3.75H196Zm-2.39,0h1.26v-2l-.07.13Z"/>
  <g>
    <path class="st0-camels" d="M204,27.53a2.51,2.51,0,0,1-.12.8,1.79,1.79,0,0,1-.34.6,1.51,1.51,0,0,1-.53.38,1.78,1.78,0,0,1-1.35,0,1.52,1.52,0,0,1-.53-.38,1.77,1.77,0,0,1-.34-.6,2.45,2.45,0,0,1-.12-.8v-.17a2.46,2.46,0,0,1,.12-.8,1.8,1.8,0,0,1,.34-.61,1.48,1.48,0,0,1,.53-.38,1.78,1.78,0,0,1,1.35,0,1.48,1.48,0,0,1,.53.38,1.8,1.8,0,0,1,.34.61,2.46,2.46,0,0,1,.12.8Zm-.82-.18a1.65,1.65,0,0,0-.22-.93.78.78,0,0,0-1.26,0,1.65,1.65,0,0,0-.22.93v.18a2.25,2.25,0,0,0,.06.54,1.23,1.23,0,0,0,.17.39.73.73,0,0,0,.27.24.78.78,0,0,0,.36.08.71.71,0,0,0,.63-.32,1.68,1.68,0,0,0,.22-.94Z"/>
    <path class="st0-camels" d="M206.87,28h-.64V29.4h-.8V25.49h1.45a2.24,2.24,0,0,1,.61.08,1.3,1.3,0,0,1,.45.23,1,1,0,0,1,.29.37,1.22,1.22,0,0,1,.1.51,1.46,1.46,0,0,1,0,.39,1,1,0,0,1-.36.54,1.42,1.42,0,0,1-.29.17l.85,1.6v0h-.87Zm-.64-.65h.65a.84.84,0,0,0,.28,0,.52.52,0,0,0,.2-.12.47.47,0,0,0,.12-.18.65.65,0,0,0,0-.24.6.6,0,0,0-.16-.44.66.66,0,0,0-.48-.16h-.65Z"/>
  </g>
  <path class="st0-camels" d="M212.36,26.6l.33-2.89h3.19v.94h-2.26l-.14,1.22.14-.07.2-.07.24-.05.27,0a1.94,1.94,0,0,1,.73.13,1.46,1.46,0,0,1,.54.38,1.65,1.65,0,0,1,.34.6,2.56,2.56,0,0,1,.12.8,2.22,2.22,0,0,1-.12.72,1.67,1.67,0,0,1-1,1,2.12,2.12,0,0,1-.85.16,2.3,2.3,0,0,1-.71-.11,1.92,1.92,0,0,1-.61-.32,1.67,1.67,0,0,1-.43-.52,1.58,1.58,0,0,1-.18-.7h1.12a.84.84,0,0,0,.25.55.79.79,0,0,0,.56.2.75.75,0,0,0,.37-.08.68.68,0,0,0,.25-.22,1,1,0,0,0,.14-.33,1.76,1.76,0,0,0,0-.42,1.42,1.42,0,0,0-.05-.41.81.81,0,0,0-.17-.32.74.74,0,0,0-.29-.2,1,1,0,0,0-.41-.07,1.18,1.18,0,0,0-.27,0l-.21.07-.16.1-.13.12Z"/>
  <g>
    <path class="st0-camels" d="M195.25,36.1a1.65,1.65,0,0,1-.13.55,1.28,1.28,0,0,1-.31.43,1.42,1.42,0,0,1-.48.28,1.92,1.92,0,0,1-.65.1,1.68,1.68,0,0,1-.68-.13,1.38,1.38,0,0,1-.51-.37,1.7,1.7,0,0,1-.32-.59,2.56,2.56,0,0,1-.11-.78v-.26a2.45,2.45,0,0,1,.12-.78,1.71,1.71,0,0,1,.33-.59,1.41,1.41,0,0,1,.51-.38,1.65,1.65,0,0,1,.67-.13,1.86,1.86,0,0,1,.65.1,1.38,1.38,0,0,1,.48.29,1.32,1.32,0,0,1,.31.44,1.87,1.87,0,0,1,.14.55h-.8a1.26,1.26,0,0,0-.06-.31.6.6,0,0,0-.14-.23.56.56,0,0,0-.23-.14,1.08,1.08,0,0,0-.34,0,.68.68,0,0,0-.61.3,1.68,1.68,0,0,0-.2.92v.26a2.83,2.83,0,0,0,0,.53,1.1,1.1,0,0,0,.14.38.6.6,0,0,0,.25.23.82.82,0,0,0,.37.08,1.09,1.09,0,0,0,.33,0,.55.55,0,0,0,.38-.35,1,1,0,0,0,.06-.31Z"/>
    <path class="st0-camels" d="M198.81,36.59H197.4l-.27.81h-.86l1.46-3.91h.75l1.46,3.91h-.86Zm-1.2-.65h1l-.49-1.46Z"/>
    <path class="st0-camels" d="M202.18,33.49l1,2.84,1-2.84h1.06V37.4h-.81V36.33l.08-1.85-1.06,2.91h-.55l-1.05-2.91.08,1.84V37.4h-.8V33.49Z"/>
    <path class="st0-camels" d="M209.12,35.71h-1.55v1h1.82v.65h-2.62V33.49h2.62v.65h-1.81v.93h1.55Z"/>
    <path class="st0-camels" d="M211.49,36.75h1.71v.65h-2.52V33.49h.8Z"/>
    <path class="st0-camels" d="M216.51,36.37a.55.55,0,0,0,0-.18.36.36,0,0,0-.11-.15,1,1,0,0,0-.23-.14l-.38-.14a5,5,0,0,1-.51-.19,1.89,1.89,0,0,1-.42-.25,1.12,1.12,0,0,1-.28-.34.93.93,0,0,1-.1-.45,1,1,0,0,1,.11-.45,1,1,0,0,1,.3-.34,1.44,1.44,0,0,1,.46-.22,2,2,0,0,1,.58-.08,1.85,1.85,0,0,1,.59.09,1.35,1.35,0,0,1,.45.25,1.12,1.12,0,0,1,.29.38,1.14,1.14,0,0,1,.1.48h-.81a.66.66,0,0,0,0-.23.48.48,0,0,0-.12-.18.55.55,0,0,0-.2-.12.86.86,0,0,0-.29,0,.94.94,0,0,0-.27,0,.56.56,0,0,0-.19.1.41.41,0,0,0-.12.15.42.42,0,0,0,0,.18.38.38,0,0,0,.2.32,2.21,2.21,0,0,0,.58.24,3.78,3.78,0,0,1,.56.22,1.7,1.7,0,0,1,.41.27,1,1,0,0,1,.33.78,1,1,0,0,1-.1.46.94.94,0,0,1-.29.34,1.34,1.34,0,0,1-.45.21,2.12,2.12,0,0,1-.58.07,2.25,2.25,0,0,1-.39,0,1.91,1.91,0,0,1-.37-.1,1.58,1.58,0,0,1-.33-.17,1.23,1.23,0,0,1-.26-.25,1.15,1.15,0,0,1-.18-.32,1.25,1.25,0,0,1-.06-.4h.81a.72.72,0,0,0,.06.3.51.51,0,0,0,.16.2.65.65,0,0,0,.24.11,1.36,1.36,0,0,0,.32,0,1,1,0,0,0,.27,0,.55.55,0,0,0,.19-.09.37.37,0,0,0,.11-.14A.44.44,0,0,0,216.51,36.37Z"/>
  </g>
  <g>
    <path class="st0-camels" d="M187.72,44.1a1.65,1.65,0,0,1-.13.55,1.28,1.28,0,0,1-.31.43,1.42,1.42,0,0,1-.48.28,1.92,1.92,0,0,1-.65.1,1.68,1.68,0,0,1-.68-.13A1.38,1.38,0,0,1,185,45a1.7,1.7,0,0,1-.32-.59,2.56,2.56,0,0,1-.11-.78v-.26a2.45,2.45,0,0,1,.12-.78,1.71,1.71,0,0,1,.33-.59,1.41,1.41,0,0,1,.51-.38,1.65,1.65,0,0,1,.67-.13,1.86,1.86,0,0,1,.65.1,1.38,1.38,0,0,1,.48.29,1.32,1.32,0,0,1,.31.44,1.87,1.87,0,0,1,.14.55h-.8a1.26,1.26,0,0,0-.06-.31.6.6,0,0,0-.14-.23.56.56,0,0,0-.23-.14,1.08,1.08,0,0,0-.34,0,.68.68,0,0,0-.61.3,1.68,1.68,0,0,0-.2.92v.26a2.83,2.83,0,0,0,0,.53,1.1,1.1,0,0,0,.14.38.6.6,0,0,0,.25.23.82.82,0,0,0,.37.08,1.09,1.09,0,0,0,.33,0,.55.55,0,0,0,.38-.35,1,1,0,0,0,.06-.31Z"/>
    <path class="st0-camels" d="M192,43.54a2.5,2.5,0,0,1-.12.8,1.73,1.73,0,0,1-.34.6,1.49,1.49,0,0,1-.53.38,1.78,1.78,0,0,1-1.35,0,1.53,1.53,0,0,1-.53-.38,1.74,1.74,0,0,1-.35-.6,2.45,2.45,0,0,1-.12-.8v-.17a2.46,2.46,0,0,1,.12-.8,1.76,1.76,0,0,1,.34-.61,1.48,1.48,0,0,1,.53-.38,1.78,1.78,0,0,1,1.35,0,1.48,1.48,0,0,1,.53.38,1.76,1.76,0,0,1,.34.61,2.46,2.46,0,0,1,.12.8Zm-.82-.18a1.65,1.65,0,0,0-.22-.93.78.78,0,0,0-1.26,0,1.65,1.65,0,0,0-.22.93v.18a2.25,2.25,0,0,0,.06.54,1.19,1.19,0,0,0,.17.39.73.73,0,0,0,.27.24.78.78,0,0,0,.36.08.71.71,0,0,0,.63-.32,1.68,1.68,0,0,0,.22-.94Z"/>
    <path class="st0-camels" d="M194.19,41.49l1,2.84,1-2.84h1.06V45.4h-.81V44.33l.08-1.85-1.05,2.91h-.55l-1.05-2.91.08,1.84V45.4h-.8V41.49Z"/>
    <path class="st0-camels" d="M199.31,44V45.4h-.8V41.49H200a1.84,1.84,0,0,1,.62.1,1.35,1.35,0,0,1,.46.27,1.16,1.16,0,0,1,.29.41,1.32,1.32,0,0,1,.1.52,1.27,1.27,0,0,1-.1.51,1.05,1.05,0,0,1-.29.39,1.35,1.35,0,0,1-.46.25A2,2,0,0,1,200,44Zm0-.65H200a.91.91,0,0,0,.29,0,.54.54,0,0,0,.21-.12.47.47,0,0,0,.12-.18.69.69,0,0,0,0-.23.78.78,0,0,0,0-.24.59.59,0,0,0-.12-.21.57.57,0,0,0-.21-.14.75.75,0,0,0-.29-.05h-.72Z"/>
    <path class="st0-camels" d="M204.33,44.6h-1.41l-.27.81h-.86l1.46-3.91H204l1.46,3.91h-.86Zm-1.2-.65h1l-.49-1.46Z"/>
    <path class="st0-camels" d="M207.82,44h-.64V45.4h-.8V41.49h1.45a2.24,2.24,0,0,1,.61.08,1.3,1.3,0,0,1,.45.23,1,1,0,0,1,.29.37,1.22,1.22,0,0,1,.1.51,1.46,1.46,0,0,1,0,.39,1,1,0,0,1-.36.54,1.42,1.42,0,0,1-.29.17l.85,1.6v0h-.87Zm-.64-.65h.65a.84.84,0,0,0,.28,0,.52.52,0,0,0,.2-.12.47.47,0,0,0,.12-.18.65.65,0,0,0,0-.24.6.6,0,0,0-.16-.44.66.66,0,0,0-.48-.16h-.65Z"/>
    <path class="st0-camels" d="M212.64,44.6h-1.41l-.27.81h-.86l1.46-3.91h.75l1.46,3.91h-.86Zm-1.2-.65h1l-.49-1.46Z"/>
    <path class="st0-camels" d="M214.68,45.4V41.49h1.37a2.63,2.63,0,0,1,.61.06,1.29,1.29,0,0,1,.46.2.89.89,0,0,1,.29.33,1.09,1.09,0,0,1,.1.48,1,1,0,0,1,0,.26.84.84,0,0,1-.1.23.8.8,0,0,1-.17.19.89.89,0,0,1-.25.14.84.84,0,0,1,.29.13.8.8,0,0,1,.2.2.85.85,0,0,1,.12.25,1.11,1.11,0,0,1,0,.28,1,1,0,0,1-.37.86,1.65,1.65,0,0,1-1,.29Zm.8-2.27h.6a.73.73,0,0,0,.46-.13.43.43,0,0,0,.15-.36.45.45,0,0,0-.15-.38.81.81,0,0,0-.49-.12h-.56Zm0,.57v1.06h.69a.82.82,0,0,0,.27,0,.53.53,0,0,0,.19-.11.4.4,0,0,0,.11-.16.52.52,0,0,0,0-.2.75.75,0,0,0,0-.23.45.45,0,0,0-.1-.17.46.46,0,0,0-.18-.11.8.8,0,0,0-.26,0Z"/>
    <path class="st0-camels" d="M219.54,44.76h1.71v.65h-2.52V41.49h.8Z"/>
    <path class="st0-camels" d="M224.62,43.71h-1.55v1h1.82v.65h-2.62V41.49h2.62v.65h-1.81v.93h1.55Z"/>
  </g>
  <rect class="st0-camels" x="183.15" y="48.83" width="43" height="2.52"/>
  <line class="st1-camels" x1="205.57" y1="0.18" x2="205.57" y2="9.38"/>
  <g>
    <path class="st2-camels" d="M210.08,5.94,205.9,17.31l-.39,1-.38-1L201,5.94l-.31-.87.85.35L205.32,7l4.24-1.57.83-.31Z"/>
    <path class="st3-camels" d="M210.08,5.94,205.9,17.31l-.39,1-.38-1L201,5.94l-.31-.87.85.35L205.32,7l4.24-1.57.83-.31Z"/>
  </g>
  <path class="st0-camels" d="M22.27,29.49H21.15V25.13l-1.35.42v-.92l2.36-.84h.12Z"/>
  <g>
    <path class="st0-camels" d="M12.22,36.18a1.6,1.6,0,0,1-.13.55,1.27,1.27,0,0,1-.31.43,1.43,1.43,0,0,1-.48.28,1.92,1.92,0,0,1-.65.1,1.68,1.68,0,0,1-.68-.13A1.38,1.38,0,0,1,9.46,37a1.71,1.71,0,0,1-.32-.59A2.56,2.56,0,0,1,9,35.66V35.4a2.48,2.48,0,0,1,.12-.78A1.72,1.72,0,0,1,9.48,34a1.42,1.42,0,0,1,.51-.38,1.65,1.65,0,0,1,.67-.13,1.85,1.85,0,0,1,.65.1,1.39,1.39,0,0,1,.48.29,1.31,1.31,0,0,1,.31.44,1.83,1.83,0,0,1,.14.55h-.81a1.22,1.22,0,0,0-.06-.31.62.62,0,0,0-.14-.23.56.56,0,0,0-.23-.14,1.07,1.07,0,0,0-.34,0,.68.68,0,0,0-.61.3,1.67,1.67,0,0,0-.2.92v.26a2.79,2.79,0,0,0,0,.53,1.12,1.12,0,0,0,.14.38.62.62,0,0,0,.25.23.81.81,0,0,0,.37.08,1.09,1.09,0,0,0,.33,0,.56.56,0,0,0,.38-.35,1.1,1.1,0,0,0,.06-.31Z"/>
    <path class="st0-camels" d="M15.78,36.68H14.37l-.27.81h-.86l1.46-3.91h.75l1.46,3.91H16ZM14.58,36h1l-.49-1.46Z"/>
    <path class="st0-camels" d="M19.15,33.58l1,2.84,1-2.84h1.06v3.91H21.4V36.42l.08-1.85-1.06,2.91h-.55l-1.05-2.91.08,1.84v1.07H18.1V33.58Z"/>
    <path class="st0-camels" d="M26.09,35.79H24.54v1h1.81v.65H23.74V33.58h2.62v.65H24.54v.93h1.55Z"/>
    <path class="st0-camels" d="M28.46,36.84h1.71v.65H27.65V33.58h.8Z"/>
    <path class="st0-camels" d="M33.48,36.46a.55.55,0,0,0,0-.18.35.35,0,0,0-.11-.15,1,1,0,0,0-.23-.14l-.38-.14a4.8,4.8,0,0,1-.51-.19,1.88,1.88,0,0,1-.42-.25,1.12,1.12,0,0,1-.28-.34.93.93,0,0,1-.1-.45,1,1,0,0,1,.11-.45,1,1,0,0,1,.3-.34,1.46,1.46,0,0,1,.46-.22,2,2,0,0,1,.58-.08,1.85,1.85,0,0,1,.59.09,1.35,1.35,0,0,1,.45.25,1.11,1.11,0,0,1,.29.38,1.15,1.15,0,0,1,.1.48h-.81a.64.64,0,0,0,0-.23.46.46,0,0,0-.12-.18.54.54,0,0,0-.2-.12.85.85,0,0,0-.28,0,1,1,0,0,0-.28,0,.58.58,0,0,0-.19.1.41.41,0,0,0-.12.15.4.4,0,0,0,0,.18.38.38,0,0,0,.2.32,2.24,2.24,0,0,0,.58.24,3.78,3.78,0,0,1,.56.22,1.67,1.67,0,0,1,.41.27,1,1,0,0,1,.25.34,1.05,1.05,0,0,1,.08.43,1,1,0,0,1-.1.46,1,1,0,0,1-.29.34,1.33,1.33,0,0,1-.45.21,2.12,2.12,0,0,1-.58.07,2.25,2.25,0,0,1-.39,0,1.91,1.91,0,0,1-.37-.1,1.58,1.58,0,0,1-.33-.17,1.21,1.21,0,0,1-.26-.25,1.12,1.12,0,0,1-.17-.32,1.22,1.22,0,0,1-.06-.4h.81a.72.72,0,0,0,.06.3.51.51,0,0,0,.16.2.65.65,0,0,0,.24.11,1.37,1.37,0,0,0,.32,0,1,1,0,0,0,.27,0,.57.57,0,0,0,.19-.09.37.37,0,0,0,.11-.14A.43.43,0,0,0,33.48,36.46Z"/>
  </g>
  <g>
    <path class="st0-camels" d="M4.69,44.19a1.6,1.6,0,0,1-.13.55,1.27,1.27,0,0,1-.31.43,1.43,1.43,0,0,1-.48.28,1.92,1.92,0,0,1-.65.1,1.68,1.68,0,0,1-.68-.13A1.38,1.38,0,0,1,1.94,45a1.71,1.71,0,0,1-.32-.59,2.56,2.56,0,0,1-.11-.78v-.26a2.48,2.48,0,0,1,.12-.78A1.72,1.72,0,0,1,1.95,42a1.42,1.42,0,0,1,.51-.38,1.65,1.65,0,0,1,.67-.13,1.85,1.85,0,0,1,.65.1,1.39,1.39,0,0,1,.48.29,1.31,1.31,0,0,1,.31.44,1.83,1.83,0,0,1,.14.55H3.89a1.22,1.22,0,0,0-.06-.31.62.62,0,0,0-.14-.23.56.56,0,0,0-.23-.14,1.07,1.07,0,0,0-.34,0,.68.68,0,0,0-.61.3,1.67,1.67,0,0,0-.2.92v.26a2.79,2.79,0,0,0,0,.53,1.12,1.12,0,0,0,.14.38.62.62,0,0,0,.25.23.81.81,0,0,0,.37.08,1.09,1.09,0,0,0,.33,0,.56.56,0,0,0,.38-.35,1.1,1.1,0,0,0,.06-.31Z"/>
    <path class="st0-camels" d="M9,43.62a2.5,2.5,0,0,1-.12.8,1.75,1.75,0,0,1-.34.6,1.49,1.49,0,0,1-.53.38,1.78,1.78,0,0,1-1.35,0A1.52,1.52,0,0,1,6.12,45a1.75,1.75,0,0,1-.35-.6,2.44,2.44,0,0,1-.12-.8v-.17a2.47,2.47,0,0,1,.12-.8A1.79,1.79,0,0,1,6.11,42a1.48,1.48,0,0,1,.53-.38,1.78,1.78,0,0,1,1.35,0,1.48,1.48,0,0,1,.53.38,1.79,1.79,0,0,1,.34.61,2.47,2.47,0,0,1,.12.8Zm-.82-.18a1.64,1.64,0,0,0-.22-.93.78.78,0,0,0-1.26,0,1.64,1.64,0,0,0-.22.93v.18a2.28,2.28,0,0,0,.06.54,1.22,1.22,0,0,0,.17.39A.73.73,0,0,0,7,44.8a.77.77,0,0,0,.36.08.71.71,0,0,0,.63-.32,1.68,1.68,0,0,0,.22-.94Z"/>
    <path class="st0-camels" d="M11.16,41.58l1,2.84,1-2.84h1.06v3.91h-.81V44.42l.08-1.85-1.06,2.91h-.55l-1.05-2.91.08,1.84v1.07h-.81V41.58Z"/>
    <path class="st0-camels" d="M16.28,44.11v1.38h-.81V41.58H17a1.84,1.84,0,0,1,.62.1,1.35,1.35,0,0,1,.46.27,1.18,1.18,0,0,1,.29.41,1.32,1.32,0,0,1,.1.52,1.27,1.27,0,0,1-.1.51,1.07,1.07,0,0,1-.29.39,1.35,1.35,0,0,1-.46.25,2,2,0,0,1-.62.09Zm0-.65H17a.92.92,0,0,0,.3,0,.54.54,0,0,0,.21-.12.46.46,0,0,0,.12-.18.72.72,0,0,0,0-.23.81.81,0,0,0,0-.24.55.55,0,0,0-.32-.35.76.76,0,0,0-.3-.05h-.72Z"/>
    <path class="st0-camels" d="M21.3,44.68H19.89l-.27.81h-.86l1.46-3.91H21l1.46,3.91h-.86ZM20.11,44h1l-.49-1.46Z"/>
    <path class="st0-camels" d="M24.79,44.06h-.64v1.43h-.81V41.58H24.8a2.22,2.22,0,0,1,.61.08,1.29,1.29,0,0,1,.45.23,1,1,0,0,1,.28.37,1.22,1.22,0,0,1,.1.51,1.38,1.38,0,0,1,0,.39,1,1,0,0,1-.14.3,1,1,0,0,1-.22.23,1.4,1.4,0,0,1-.29.17l.85,1.6v0h-.87Zm-.64-.65h.65a.83.83,0,0,0,.28,0,.52.52,0,0,0,.2-.12.49.49,0,0,0,.12-.18.65.65,0,0,0,0-.24.59.59,0,0,0-.16-.44.65.65,0,0,0-.48-.16h-.65Z"/>
    <path class="st0-camels" d="M29.61,44.68H28.19l-.27.81h-.86l1.46-3.91h.75l1.46,3.91h-.86ZM28.41,44h1l-.49-1.46Z"/>
    <path class="st0-camels" d="M31.65,45.49V41.58H33a2.62,2.62,0,0,1,.61.06,1.29,1.29,0,0,1,.46.2.88.88,0,0,1,.29.33,1.08,1.08,0,0,1,.1.48,1,1,0,0,1,0,.26.82.82,0,0,1-.28.43.88.88,0,0,1-.25.14.87.87,0,0,1,.29.13.81.81,0,0,1,.2.2.82.82,0,0,1,.12.25,1.11,1.11,0,0,1,0,.28,1,1,0,0,1-.37.86,1.65,1.65,0,0,1-1,.29Zm.8-2.27h.6a.73.73,0,0,0,.46-.13.44.44,0,0,0,.15-.36.45.45,0,0,0-.15-.38.81.81,0,0,0-.49-.12h-.56Zm0,.57v1.06h.69a.81.81,0,0,0,.27,0,.52.52,0,0,0,.19-.11.42.42,0,0,0,.11-.16.54.54,0,0,0,0-.2.75.75,0,0,0,0-.23.42.42,0,0,0-.28-.28.81.81,0,0,0-.26,0Z"/>
    <path class="st0-camels" d="M36.51,44.84h1.71v.65H35.71V41.58h.8Z"/>
    <path class="st0-camels" d="M41.59,43.79H40v1h1.81v.65H39.23V41.58h2.62v.65H40v.93h1.55Z"/>
  </g>
  <rect class="st0-camels" y="48.78" width="43" height="2.52"/>
  <line class="st1-camels" x1="21.79" y1="0.13" x2="21.79" y2="9.33"/>
  <g>
    <path class="st2-camels" d="M26.31,5.89,22.12,17.26l-.38,1-.38-1L17.27,5.89,17,5l.85.35,3.74,1.56,4.24-1.57.83-.31Z"/>
    <path class="st3-camels" d="M26.31,5.89,22.12,17.26l-.38,1-.38-1L17.27,5.89,17,5l.85.35,3.74,1.56,4.24-1.57.83-.31Z"/>
  </g>
  <path class="st0-camels" d="M105.38,29.4h-3.9v-.77l1.84-2c.14-.15.26-.29.35-.41a2.93,2.93,0,0,0,.23-.34,1.26,1.26,0,0,0,.13-.29,1,1,0,0,0,0-.26.86.86,0,0,0-.19-.6.69.69,0,0,0-.55-.22.83.83,0,0,0-.35.07.74.74,0,0,0-.26.2.92.92,0,0,0-.16.3,1.33,1.33,0,0,0-.05.38h-1.13a1.94,1.94,0,0,1,.14-.72,1.74,1.74,0,0,1,.39-.59,1.9,1.9,0,0,1,.62-.4,2.18,2.18,0,0,1,.82-.15,2.59,2.59,0,0,1,.79.11,1.61,1.61,0,0,1,.58.32,1.32,1.32,0,0,1,.36.51,1.77,1.77,0,0,1,.12.68,1.69,1.69,0,0,1-.09.55,2.53,2.53,0,0,1-.25.53,4.2,4.2,0,0,1-.4.54c-.15.18-.33.37-.52.56l-1,1.06h2.45Z"/>
  <g>
    <path class="st0-camels" d="M112.84,27.53a2.5,2.5,0,0,1-.12.8,1.73,1.73,0,0,1-.34.6,1.49,1.49,0,0,1-.53.38,1.78,1.78,0,0,1-1.35,0,1.53,1.53,0,0,1-.53-.38,1.74,1.74,0,0,1-.35-.6,2.45,2.45,0,0,1-.12-.8v-.17a2.46,2.46,0,0,1,.12-.8A1.76,1.76,0,0,1,110,26a1.48,1.48,0,0,1,.53-.38,1.78,1.78,0,0,1,1.35,0,1.48,1.48,0,0,1,.53.38,1.76,1.76,0,0,1,.34.61,2.46,2.46,0,0,1,.12.8Zm-.82-.18a1.65,1.65,0,0,0-.22-.93.78.78,0,0,0-1.26,0,1.65,1.65,0,0,0-.22.93v.18a2.25,2.25,0,0,0,.06.54,1.19,1.19,0,0,0,.17.39.73.73,0,0,0,.27.24.78.78,0,0,0,.36.08.71.71,0,0,0,.63-.32,1.68,1.68,0,0,0,.22-.94Z"/>
    <path class="st0-camels" d="M115.69,28H115V29.4h-.8V25.49h1.45a2.23,2.23,0,0,1,.61.08,1.31,1.31,0,0,1,.46.23,1,1,0,0,1,.28.37,1.22,1.22,0,0,1,.1.51,1.38,1.38,0,0,1,0,.39,1,1,0,0,1-.14.3,1,1,0,0,1-.22.23,1.4,1.4,0,0,1-.29.17l.85,1.6v0h-.87Zm-.64-.65h.65a.83.83,0,0,0,.28,0,.52.52,0,0,0,.2-.12.49.49,0,0,0,.12-.18.65.65,0,0,0,0-.24.59.59,0,0,0-.16-.44.65.65,0,0,0-.48-.16H115Z"/>
  </g>
  <path class="st0-camels" d="M122.16,26.06h.6a.85.85,0,0,0,.64-.21.79.79,0,0,0,.21-.57.88.88,0,0,0,0-.29.61.61,0,0,0-.14-.23.68.68,0,0,0-.24-.15,1,1,0,0,0-.34-.05.93.93,0,0,0-.29,0,.75.75,0,0,0-.24.13.58.58,0,0,0-.22.47h-1.13a1.38,1.38,0,0,1,.15-.64,1.47,1.47,0,0,1,.4-.49,1.88,1.88,0,0,1,.59-.31,2.32,2.32,0,0,1,.73-.11,2.78,2.78,0,0,1,.78.1,1.75,1.75,0,0,1,.61.31,1.41,1.41,0,0,1,.39.51,1.65,1.65,0,0,1,.14.7,1.23,1.23,0,0,1-.06.36,1.26,1.26,0,0,1-.17.34,1.59,1.59,0,0,1-.27.29,1.62,1.62,0,0,1-.37.23,1.33,1.33,0,0,1,1,1.33,1.6,1.6,0,0,1-.15.71,1.52,1.52,0,0,1-.42.53,1.91,1.91,0,0,1-.64.32,2.76,2.76,0,0,1-.8.11,2.6,2.6,0,0,1-.71-.1,1.85,1.85,0,0,1-.62-.3,1.53,1.53,0,0,1-.44-.51,1.5,1.5,0,0,1-.17-.73H122a.67.67,0,0,0,.24.52.83.83,0,0,0,.26.15,1,1,0,0,0,.33.05,1.12,1.12,0,0,0,.36-.05.75.75,0,0,0,.27-.16.7.7,0,0,0,.17-.25.83.83,0,0,0,.06-.32,1.05,1.05,0,0,0-.06-.39.65.65,0,0,0-.19-.26.8.8,0,0,0-.29-.15,1.46,1.46,0,0,0-.39,0h-.6Z"/>
  <g>
    <path class="st0-camels" d="M103.8,36.1a1.56,1.56,0,0,1-.13.55,1.25,1.25,0,0,1-.31.43,1.43,1.43,0,0,1-.48.28,1.92,1.92,0,0,1-.65.1,1.67,1.67,0,0,1-.67-.13,1.37,1.37,0,0,1-.51-.37,1.71,1.71,0,0,1-.32-.59,2.56,2.56,0,0,1-.11-.78v-.26a2.51,2.51,0,0,1,.12-.78,1.74,1.74,0,0,1,.33-.59,1.41,1.41,0,0,1,.51-.38,1.66,1.66,0,0,1,.67-.13,1.86,1.86,0,0,1,.65.1,1.4,1.4,0,0,1,.48.29,1.29,1.29,0,0,1,.3.44,1.81,1.81,0,0,1,.14.55H103a1.18,1.18,0,0,0-.06-.31.62.62,0,0,0-.13-.23.56.56,0,0,0-.23-.14,1.07,1.07,0,0,0-.34,0,.69.69,0,0,0-.61.3,1.68,1.68,0,0,0-.2.92v.26a2.83,2.83,0,0,0,0,.53,1.15,1.15,0,0,0,.14.38.62.62,0,0,0,.25.23.8.8,0,0,0,.37.08,1.1,1.1,0,0,0,.33,0,.56.56,0,0,0,.38-.35,1.14,1.14,0,0,0,.06-.31Z"/>
    <path class="st0-camels" d="M107.35,36.59h-1.41l-.27.81h-.86l1.46-3.91H107l1.46,3.91h-.86Zm-1.2-.65h1l-.49-1.46Z"/>
    <path class="st0-camels" d="M110.72,33.49l1,2.84,1-2.84h1.06V37.4H113V36.33l.08-1.85L112,37.4h-.55l-1.05-2.91.08,1.84V37.4h-.8V33.49Z"/>
    <path class="st0-camels" d="M117.67,35.71h-1.55v1h1.82v.65h-2.62V33.49h2.62v.65h-1.81v.93h1.55Z"/>
    <path class="st0-camels" d="M120,36.75h1.71v.65h-2.52V33.49h.8Z"/>
    <path class="st0-camels" d="M125.06,36.37a.55.55,0,0,0,0-.18.37.37,0,0,0-.12-.15,1,1,0,0,0-.23-.14l-.38-.14a4.78,4.78,0,0,1-.51-.19,1.89,1.89,0,0,1-.42-.25,1.16,1.16,0,0,1-.28-.34.93.93,0,0,1-.1-.45,1,1,0,0,1,.11-.45,1,1,0,0,1,.3-.34,1.49,1.49,0,0,1,.46-.22,2,2,0,0,1,.58-.08,1.83,1.83,0,0,1,.59.09,1.36,1.36,0,0,1,.46.25,1.12,1.12,0,0,1,.29.38,1.14,1.14,0,0,1,.1.48h-.81a.66.66,0,0,0,0-.23.47.47,0,0,0-.12-.18.56.56,0,0,0-.2-.12.86.86,0,0,0-.29,0,1,1,0,0,0-.28,0,.56.56,0,0,0-.19.1.4.4,0,0,0-.12.15.42.42,0,0,0,0,.18.38.38,0,0,0,.2.32,2.21,2.21,0,0,0,.58.24,3.78,3.78,0,0,1,.56.22,1.66,1.66,0,0,1,.41.27,1.05,1.05,0,0,1,.25.34,1.09,1.09,0,0,1,.08.43,1,1,0,0,1-.1.46.94.94,0,0,1-.29.34,1.36,1.36,0,0,1-.45.21,2.13,2.13,0,0,1-.58.07,2.25,2.25,0,0,1-.39,0,1.93,1.93,0,0,1-.37-.1,1.63,1.63,0,0,1-.33-.17,1.23,1.23,0,0,1-.26-.25,1.1,1.1,0,0,1-.17-.32,1.2,1.2,0,0,1-.06-.4h.81a.73.73,0,0,0,.05.3.51.51,0,0,0,.16.2.64.64,0,0,0,.24.11,1.39,1.39,0,0,0,.32,0,1,1,0,0,0,.27,0,.56.56,0,0,0,.19-.09.35.35,0,0,0,.11-.14A.44.44,0,0,0,125.06,36.37Z"/>
  </g>
  <g>
    <path class="st0-camels" d="M96.27,44.1a1.56,1.56,0,0,1-.13.55,1.25,1.25,0,0,1-.31.43,1.43,1.43,0,0,1-.48.28,1.92,1.92,0,0,1-.65.1,1.67,1.67,0,0,1-.67-.13,1.37,1.37,0,0,1-.51-.37,1.71,1.71,0,0,1-.32-.59,2.56,2.56,0,0,1-.11-.78v-.26a2.51,2.51,0,0,1,.12-.78,1.74,1.74,0,0,1,.33-.59,1.41,1.41,0,0,1,.51-.38,1.66,1.66,0,0,1,.67-.13,1.86,1.86,0,0,1,.65.1,1.4,1.4,0,0,1,.48.29,1.29,1.29,0,0,1,.3.44,1.81,1.81,0,0,1,.14.55h-.81a1.18,1.18,0,0,0-.06-.31.62.62,0,0,0-.13-.23.56.56,0,0,0-.23-.14,1.07,1.07,0,0,0-.34,0,.69.69,0,0,0-.61.3,1.68,1.68,0,0,0-.2.92v.26a2.83,2.83,0,0,0,0,.53,1.15,1.15,0,0,0,.14.38.62.62,0,0,0,.25.23.8.8,0,0,0,.37.08,1.1,1.1,0,0,0,.33,0,.56.56,0,0,0,.38-.35,1.14,1.14,0,0,0,.06-.31Z"/>
    <path class="st0-camels" d="M100.55,43.54a2.51,2.51,0,0,1-.12.8,1.79,1.79,0,0,1-.34.6,1.51,1.51,0,0,1-.53.38,1.78,1.78,0,0,1-1.35,0,1.52,1.52,0,0,1-.53-.38,1.77,1.77,0,0,1-.34-.6,2.45,2.45,0,0,1-.12-.8v-.17a2.46,2.46,0,0,1,.12-.8,1.8,1.8,0,0,1,.34-.61,1.48,1.48,0,0,1,.53-.38,1.78,1.78,0,0,1,1.35,0,1.48,1.48,0,0,1,.53.38,1.8,1.8,0,0,1,.34.61,2.46,2.46,0,0,1,.12.8Zm-.82-.18a1.65,1.65,0,0,0-.22-.93.78.78,0,0,0-1.26,0,1.65,1.65,0,0,0-.22.93v.18a2.25,2.25,0,0,0,.06.54,1.23,1.23,0,0,0,.17.39.73.73,0,0,0,.27.24.78.78,0,0,0,.36.08.71.71,0,0,0,.63-.32,1.68,1.68,0,0,0,.22-.94Z"/>
    <path class="st0-camels" d="M102.74,41.49l1,2.84,1-2.84h1.06V45.4H105V44.33l.08-1.85L104,45.4h-.55l-1.05-2.91.08,1.84V45.4h-.8V41.49Z"/>
    <path class="st0-camels" d="M107.86,44V45.4h-.8V41.49h1.53a1.85,1.85,0,0,1,.62.1,1.32,1.32,0,0,1,.46.27,1.16,1.16,0,0,1,.29.41,1.32,1.32,0,0,1,.1.52,1.27,1.27,0,0,1-.1.51,1.05,1.05,0,0,1-.29.39,1.32,1.32,0,0,1-.46.25,2,2,0,0,1-.62.09Zm0-.65h.72a.92.92,0,0,0,.3,0,.53.53,0,0,0,.2-.12.47.47,0,0,0,.12-.18.69.69,0,0,0,0-.23.78.78,0,0,0,0-.24.59.59,0,0,0-.12-.21.56.56,0,0,0-.2-.14.76.76,0,0,0-.3-.05h-.72Z"/>
    <path class="st0-camels" d="M112.88,44.6h-1.41l-.27.81h-.86l1.46-3.91h.75L114,45.4h-.86Zm-1.2-.65h1l-.49-1.46Z"/>
    <path class="st0-camels" d="M116.37,44h-.64V45.4h-.8V41.49h1.45a2.23,2.23,0,0,1,.61.08,1.31,1.31,0,0,1,.46.23,1,1,0,0,1,.28.37,1.22,1.22,0,0,1,.1.51,1.38,1.38,0,0,1,0,.39,1,1,0,0,1-.14.3,1,1,0,0,1-.22.23,1.4,1.4,0,0,1-.29.17l.85,1.6v0h-.87Zm-.64-.65h.65a.83.83,0,0,0,.28,0,.52.52,0,0,0,.2-.12A.49.49,0,0,0,117,43a.65.65,0,0,0,0-.24.59.59,0,0,0-.16-.44.65.65,0,0,0-.48-.16h-.65Z"/>
    <path class="st0-camels" d="M121.18,44.6h-1.41l-.27.81h-.86l1.46-3.91h.75l1.46,3.91h-.86Zm-1.2-.65h1l-.49-1.46Z"/>
    <path class="st0-camels" d="M123.23,45.4V41.49h1.37a2.6,2.6,0,0,1,.61.06,1.28,1.28,0,0,1,.46.2.87.87,0,0,1,.29.33,1.06,1.06,0,0,1,.1.48.93.93,0,0,1,0,.26.83.83,0,0,1-.1.23.81.81,0,0,1-.17.19.86.86,0,0,1-.25.14.87.87,0,0,1,.29.13.79.79,0,0,1,.2.2.8.8,0,0,1,.12.25,1.16,1.16,0,0,1-.33,1.14,1.65,1.65,0,0,1-1,.29Zm.8-2.27h.6a.73.73,0,0,0,.46-.13.44.44,0,0,0,.15-.36.45.45,0,0,0-.15-.38.81.81,0,0,0-.49-.12H124Zm0,.57v1.06h.69a.81.81,0,0,0,.27,0,.53.53,0,0,0,.19-.11.44.44,0,0,0,.11-.16.56.56,0,0,0,0-.2.75.75,0,0,0,0-.23.43.43,0,0,0-.1-.17.45.45,0,0,0-.18-.11.82.82,0,0,0-.26,0Z"/>
    <path class="st0-camels" d="M128.09,44.76h1.71v.65h-2.52V41.49h.8Z"/>
    <path class="st0-camels" d="M133.16,43.71h-1.55v1h1.82v.65h-2.62V41.49h2.62v.65h-1.81v.93h1.55Z"/>
  </g>
  <rect class="st0-camels" x="91.58" y="48.83" width="43" height="2.52"/>
  <line class="st1-camels" x1="113.68" y1="0.18" x2="113.68" y2="9.38"/>
  <g>
    <path class="st2-camels" d="M118.2,5.94,114,17.31l-.39,1-.38-1L109.15,5.94l-.31-.87.85.35L113.44,7l4.24-1.57.83-.31Z"/>
    <path class="st3-camels" d="M118.2,5.94,114,17.31l-.39,1-.38-1L109.15,5.94l-.31-.87.85.35L113.44,7l4.24-1.57.83-.31Z"/>
  </g>
</svg>
