<?xml version="1.0" encoding="utf-8"?>
<!-- Generator: Adobe Illustrator 21.0.2, SVG Export Plug-In . SVG Version: 6.00 Build 0)  -->
<svg version="1.1" id="Layer_1-you" xmlns="http://www.w3.org/2000/svg" xmlns:xlink="http://www.w3.org/1999/xlink" x="0px" y="0px"
	 viewBox="0 0 30.4 19.6" style="enable-background:new 0 0 30.4 19.6;" xml:space="preserve">
<style type="text/css">
	.st1-you{fill:none;stroke:#A5A5A5;stroke-width:2.5;}
	.st4-you{fill:#FFFFFF; font-family:'RobotoCondensed-Bold'; font-size:8px;}
	.st5-you{clip-path:url(#SVGID_2-you_);fill:#00529A;}
	.st3-you{clip-path:url(#SVGID_2-you_);fill:none;stroke:#FFFFFF;stroke-width:1.8;}
</style>
<g>
	<defs>
		<rect id="SVGID_1-you_" y="0" width="30.4" height="19.6"/>
	</defs>
	<clipPath id="SVGID_2-you_">
		<use xlink:href="#SVGID_1-you_"  style="overflow:visible;"/>
	</clipPath>
	<path class="st5-you" d="M4.3,0.9C3,0.9,0.9,1.8,0.9,4.3v4c0,1.4,0.9,3.4,3.4,3.4h4.6c1.9,2,3.8,3.9,5.6,5.9l0.6,0.7l0.7-0.6
		c2.1-2,4.2-4,6.3-5.9h3.9c1.4,0,3.4-0.9,3.4-3.4v-4c0-1.4-0.9-3.4-3.4-3.4H4.3z"/>
	<path class="st3-you" d="M4.3,0.9C3,0.9,0.9,1.8,0.9,4.3v4c0,1.4,0.9,3.4,3.4,3.4h4.6c1.9,2,3.8,3.9,5.6,5.9l0.6,0.7l0.7-0.6
		c2.1-2,4.2-4,6.3-5.9h3.9c1.4,0,3.4-0.9,3.4-3.4v-4c0-1.4-0.9-3.4-3.4-3.4H4.3z"/>
</g>
<text transform="matrix(1 0 0 1 15 9.2255)" class="st4-you" text-anchor="middle">YOU</text>
</svg>
