<svg xmlns="http://www.w3.org/2000/svg" xmlns:xlink="http://www.w3.org/1999/xlink" width="329.59" height="97.29" viewBox="0 0 329.59 97.29">
  <defs>
    <style>
      .cls-1 {
        fill: none;
      }

      .cls-2 {
        clip-path: url(#clip-path);
      }

      .cls-3 {
        fill: #266dab;
      }

      .cls-4 {
        clip-path: url(#clip-path-2);
      }

      .cls-5 {
        fill: #fff;
      }
    </style>
    <clipPath id="clip-path">
      <rect class="cls-1" width="329" height="97"/>
    </clipPath>
    <clipPath id="clip-path-2">
      <rect class="cls-1" x="54" y="32" width="104" height="36"/>
    </clipPath>
  </defs>
  <title>crop-logo-lock</title>
  <g id="Layer_2" data-name="Layer 2">
    <g id="Layer_1-2" data-name="Layer 1">
      <g id="crop-logo-lock">
        <g class="cls-2">
          <polygon class="cls-3" points="104.6 0 0 54.95 0 97 32.64 96.95 114.55 0 104.6 0"/>
          <polygon class="cls-3" points="144.1 0 133.94 0.13 215.69 97 329.59 97.29 144.1 0"/>
          <g class="cls-4">
            <path class="cls-5" d="M57.27,65a.94.94,0,0,0-1-.88c-.84,0-1.2.75-1.2,1.5s.36,1.5,1.2,1.5c.61,0,1-.46,1-1.12H58a1.64,1.64,0,0,1-1.68,1.69,2.07,2.07,0,0,1,0-4.13A1.53,1.53,0,0,1,58,65Z"/>
            <path class="cls-5" d="M63,64h.75l1.54,4h-.82l-.35-1H62.57l-.36,1h-.79Zm-.24,2h1.21l-.6-2h0Z"/>
            <path class="cls-5" d="M69,64h1.65s1.34.38,1.34.87-.22,1.22-1.34,1.13H70v2H69Zm1,1h.61c.31.52.69.36.69-.13s-.32-.66-.68-.87H70Z"/>
            <rect class="cls-5" x="76" y="64" width="1" height="4"/>
            <polygon class="cls-5" points="80 64 83 64 83 64 81 64 81 67 82 67 82 64 80 64 80 64"/>
            <path class="cls-5" d="M88.39,64h.74l1.54,4h-.81l-.36-1H88l-.35,1h-.79Zm-.24,2h1.2l-.59-2h0Z"/>
            <polygon class="cls-5" points="94 64 95 64 95 67 97 67 97 68 94 68 94 64"/>
            <path class="cls-5" d="M107,64h.4s1.34.38,1.34.87-.21,1.22-1.34,1.13H106v2h1Zm-1,1h1.36c.31.52.69.36.69-.13s-.31-.66-.68-.87H106Z"/>
            <path class="cls-5" d="M113.71,64h.74L116,68h-.81l-.36-1h-1.51L113,68h-.79Zm-.24,2h1.21l-.6-2h0Z"/>
            <path class="cls-5" d="M119,64h2.54c.86-.35,1.3,0,1.3.72s-.84,1-.84,1h0s.77.21.77.83A5.44,5.44,0,0,0,123,68h-.74a4.5,4.5,0,0,1-.11-1c0-.72-.14-1-.78-1H120v2h-1Zm1,1h1.48c.43.44.67.23.67-.19s-.33-.6-.68-.81H120Z"/>
            <polygon class="cls-5" points="127 64 130 64 130 64 128 64 128 67 129 67 129 64 127 64 127 64"/>
            <polygon class="cls-5" points="133 64 134.14 64 135.94 67 136 67 136 64 137 64 137 68 135.88 68 134.09 65 134 65 134 68 133 68 133 64"/>
            <polygon class="cls-5" points="141 63 144 63 144 64 142 64 142 65 143 65 143 66 142 66 142 67 144 67 144 68 141 68 141 63"/>
            <path class="cls-5" d="M147,64h2.42c.86-.35,1.3,0,1.3.72a1.08,1.08,0,0,1-.72,1h0a.94.94,0,0,1,.65.83,5.44,5.44,0,0,0,.22,1.45h-.74a4.5,4.5,0,0,1-.11-1c0-.72-.15-1-.78-1H148v2h-1Zm1,1h1.35c.44.44.68.23.68-.19s-.33-.6-.69-.81H148Z"/>
            <path class="cls-5" d="M155.18,66c0,.89.45,1.12,1,1.12s.84-.29.84-.59a.47.47,0,0,0-.33-.49c-.27-.1-.63-.18-1.17-.32s-.88-.6-.88-1c0-.79.73-1.16,1.45-1.16A1.36,1.36,0,0,1,157.6,65h-.69c0-.69-.38-.88-.85-.88-.32,0-.73.12-.73.51s.19.43.47.51l1.14.3a1.05,1.05,0,0,1,.77,1c0,.88-.79,1.24-1.57,1.24A1.5,1.5,0,0,1,154.5,66Z"/>
            <rect class="cls-5" x="54" y="60" width="104" height="1"/>
            <path class="cls-5" d="M58,40.54c-.26,1.88-.23,2.11.92,2.24l.48,0a.36.36,0,0,1,0,.45c-1,0-1.61-.06-2.33-.06s-1.4,0-2.18.06a.35.35,0,0,1,0-.45l.38,0c1-.15,1.07-.36,1.8-2.24V33.93c-.73-1.52-.77-1.84-1.57-1.91L54.78,32a.31.31,0,0,1,0-.45,27.51,27.51,0,0,1,3.55-.14,6.44,6.44,0,0,1,3.43.71,3.1,3.1,0,0,1,1.43,2.69,3,3,0,0,1-1.79,2.84,5.94,5.94,0,0,1-2.47.54c-.12,0-.12-.32,0-.36a2.78,2.78,0,0,0,2.63-3,2.64,2.64,0,0,0-2.89-2.87c-.94,0-1,.07-.7.64Z"/>
            <path class="cls-5" d="M66,35.92c-.5-1.49-.53-1.71-1.37-1.81l-.23,0c-.09-.06-.06-.32,0-.36A4,4,0,0,0,66.11,33h2.7a14.53,14.53,0,0,0,1.93.73,15.58,15.58,0,0,1,.23,1.9.28.28,0,0,1-.36,0c-.21-.67-.34-1.17-1.09-1.36a9.35,9.35,0,0,1-1.38-.3h-1c-.43.21-.1.79-.1.79v2.86s-.28.4.15.35H68a4.13,4.13,0,0,0,1.21,0c.18-.06.28-.15.35-.5l.11-.59a.29.29,0,0,1,.38,0c0,.35-.06.91-.06,1.45S70,39.4,70,39.71a.3.3,0,0,1-.38,0l-.13-.56a.59.59,0,0,0-.44-.54c-.2-.06-.54-.08-1.1.37h-.83c-.43-.45-.15-.06-.15-.06v2s-.28,1.25,0,1.49.47.33,1.73.33a4.1,4.1,0,0,0,1.83-.22,3.51,3.51,0,0,0,1-1.38.26.26,0,0,1,.36.1,12.22,12.22,0,0,1-.65,2A25.77,25.77,0,0,1,67.41,43h-1.3a5.82,5.82,0,0,1-1.94.27.27.27,0,0,1,0-.36l.47,0c.82-.08.89-.29,1.39-1.79Z"/>
            <path class="cls-5" d="M74,35.93c-.19-1.36-.23-1.6-.82-1.67l-.46-.06a.24.24,0,0,1,0-.36c.8-.07,1.79-.11,3.19-.11a5,5,0,0,1,2.39.43,2.13,2.13,0,0,1,1.19,2,2.66,2.66,0,0,1-1.79,2.4c-.07.08,0,.22.07.34a15.68,15.68,0,0,0,2.88,3.81,1.73,1.73,0,0,0,1,.35.12.12,0,0,1,0,.2,2.37,2.37,0,0,1-.63.07c-1.22,0-2-.31-3-1.75-.37-.53-1-1.52-1.4-2.16a1,1,0,0,0-1-.46c-.64,0-.67,0-.66.31v1.81c0,1.5,0,1.67.85,1.79l.3,0a.3.3,0,0,1,0,.36c-.65,0-1.13-.05-1.71-.05s-1.11,0-1.79.05a.28.28,0,0,1,0-.36l.35,0c.83-.1.86-.29,1-1.79Zm1,2a1.25,1.25,0,0,0,0,.48,2.79,2.79,0,0,0,1,.07,2.39,2.39,0,0,0,1.48-.38,2.06,2.06,0,0,0,.71-1.77,2.11,2.11,0,0,0-2.29-2.21c-.89,0-.93.06-.93.46Z"/>
            <path class="cls-5" d="M84,37.81c-.13.39-.09.39.34.19h1a2.14,2.14,0,0,0,1.22.11c.16-.06.27-.13.36-.5L87,37a.29.29,0,0,1,.37,0c0,.34-.06.91-.06,1.44s.06,1.06.06,1.39a.29.29,0,0,1-.37,0l-.15-.55a.66.66,0,0,0-.45-.55,1.47,1.47,0,0,0-1.11.23h-1c-.43-.3-.34.09-.34.09v2s-.11,1.72.74,1.79l.49,0c.08.06,0,.31,0,.36-.85,0-1.33-.05-1.91-.05s-1.11,0-1.79.05a.3.3,0,0,1,0-.36l.36,0c.83-.1.86-.29,1.17-1.79V35.92c-.31-1.5-.34-1.7-1.17-1.8l-.23,0a.3.3,0,0,1,0-.36A1.59,1.59,0,0,0,83.29,33h2.64a2.61,2.61,0,0,0,1.93.73c0,.66,0,1.35,0,1.89a.26.26,0,0,1-.35,0c-.11-.64-.28-1.16-1-1.36a7.52,7.52,0,0,1-1.39-.3H84.3c-.43.22-.3.79-.3.79Z"/>
            <path class="cls-5" d="M88.86,38.6A5,5,0,0,1,94,33.54a4.71,4.71,0,0,1,5,4.92,4.88,4.88,0,0,1-5,5,4.82,4.82,0,0,1-5.1-4.85m8.64.3c0-2.36-1-4.91-3.78-4.91-1.49,0-3.42,1-3.42,4.15,0,2.12,1,4.87,3.85,4.87,1.72,0,3.35-1.29,3.35-4.11"/>
            <path class="cls-5" d="M101,35.93c-.55-1.36-.59-1.6-1.18-1.67l-.45-.06a.23.23,0,0,1,0-.36c.8-.07,1.79-.11,3.19-.11a5.08,5.08,0,0,1,2.4.43,2.14,2.14,0,0,1,1.18,2,2.66,2.66,0,0,1-1.79,2.4c-.07.08,0,.22.07.34a15.68,15.68,0,0,0,2.88,3.81,1.76,1.76,0,0,0,1,.35.12.12,0,0,1,0,.2,2.37,2.37,0,0,1-.63.07c-1.22,0-2-.31-3-1.75-.37-.53-1-1.52-1.4-2.16a1,1,0,0,0-1-.46c-.64,0-.67,0-.3.31v1.81c-.37,1.5-.34,1.67.49,1.79l.3,0a.29.29,0,0,1,0,.36c-.64,0-1.13-.05-1.7-.05s-1.12,0-1.8.05a.28.28,0,0,1,0-.36l.35,0c.84-.1.86-.29,1.41-1.79Zm1,2a1.25,1.25,0,0,0,0,.48,2.79,2.79,0,0,0,1,.07,2.39,2.39,0,0,0,1.48-.38,2.06,2.06,0,0,0,.71-1.77,2.11,2.11,0,0,0-2.29-2.21c-.89,0-.93.06-.93.46Z"/>
            <path class="cls-5" d="M113.43,39.4a5.14,5.14,0,0,0,1,1.6h0a6.16,6.16,0,0,0,1.1-1.79l1.35-2.73A7.83,7.83,0,0,0,118,33.73c.49,0,.79,0,1.08,0s.83,0,1.27,0a.3.3,0,0,1,0,.36l-.3,0c-.91.1-1,.35-1,1.36,0,1.51,0,4.16.16,6.23,0,.71,0,1.09.7,1.16l.46,0a.26.26,0,0,1,0,.36c-.58,0-1.17-.05-1.69-.05s-1.14,0-1.73.05a.27.27,0,0,1,0-.36l.42,0c.7-.07.7-1.22.7-1.22V35h-.07a9.34,9.34,0,0,1-.93,2.54l-1.28,2.51c-.64,1.26-1.29,2.6-1.55,3.26a.16.16,0,0,1-.14.06.19.19,0,0,1-.13-.06,30.57,30.57,0,0,0-1.26-2.86l-1.29-2.77c-.3-.66-.91-1.68-.91-1.68h0s-.1,1.34-.15,2.17-.1,2.15-.1,3.36.09,1.29.65,1.34l.54,0c.1.09.09.31,0,.36-.49,0-1-.05-1.59-.05s-1,0-1.46.05c-.09-.07-.12-.29,0-.36l.31,0c.61-.07.81-.18.89-1.18s.16-1.73.25-3.15c.07-1.19.13-2.41.15-3.19s-.08-1.09-1-1.23l-.23,0a.28.28,0,0,1,.06-.36c.43,0,.78,0,1.13,0s.72,0,1.19,0a5.51,5.51,0,0,0,.75,2.36Z"/>
            <path class="cls-5" d="M126.7,40.36c-.1-.32-.16-.36-.59-.36H124c-.36,0-.44,0-.54.34l-.51,1.51a5.54,5.54,0,0,0-.31,1.19c0,.17.07.25.41.28l.48,0a.22.22,0,0,1,0,.35l-1.49,0c-.47,0-1,0-1.38,0a.29.29,0,0,1,0-.35l.48,0a1,1,0,0,0,.86-.7c.25-.66.66-1.59,1.26-3.19l1.46-3.87a2.1,2.1,0,0,0,.24-1,1.57,1.57,0,0,0,.75-.54.2.2,0,0,1,.21.13c.19.63.42,1.29.63,1.92l2,5.76c.42,1.23.6,1.44,1.22,1.51l.39,0a.27.27,0,0,1,0,.35c-.59,0-1.09,0-1.74,0s-1.23,0-1.64,0a.23.23,0,0,1,0-.35l.41,0c.31,0,.51-.11.51-.25a3.14,3.14,0,0,0-.19-.76Zm-2.94-1.73c-.12.35-.11.37.33.37h2a.32.32,0,0,0,.32-.44L125.5,36a8.27,8.27,0,0,0-.36-1h0c0,.08-.2.45-.37.92Z"/>
            <path class="cls-5" d="M139,40.79a15.68,15.68,0,0,1,.22,2.51.26.26,0,0,1-.27.15c-.17-.24-.59-.74-1.83-2.16l-3.33-3.78A20.94,20.94,0,0,0,132.13,36h0s-.07.08-.1.51v3.12a13.26,13.26,0,0,0,.29,3,1,1,0,0,0,.73.28l.44,0a.26.26,0,0,1,0,.36c-.65,0-1.15-.05-1.68-.05s-1,0-1.49.05a.27.27,0,0,1,0-.36l.39,0c.33,0,.56-.13.63-.29a4.8,4.8,0,0,0-.26-2.95V35.49c.44-.4.43-.7.13-1a1.55,1.55,0,0,0-.89-.34l-.24,0a.25.25,0,0,1,0-.36c.6,0,1.36,0,1.62,0a4.36,4.36,0,0,0,.65,0,20.7,20.7,0,0,0,2.45,3.15l1.39,1.56c1,1.12,2.37,2.56,2.37,2.56h0s.06-.27-.53-.57V37.37a3.67,3.67,0,0,0,.3-3c-.08-.13-.31-.21-.88-.28l-.25,0c-.1-.09-.08-.32,0-.36.66,0,1.15,0,1.69,0s1,0,1.48,0a.26.26,0,0,1,0,.36l-.2,0c-.46.07-.75.18-.81.3-.24.51-.21,2.29-.39,2.95Z"/>
            <path class="cls-5" d="M142.11,34.76A6.17,6.17,0,0,1,146,33.54a10.8,10.8,0,0,1,2.53.35,1,1,0,0,0,.4,0c0,.33.09,1.23.2,2.11a.3.3,0,0,1-.38,0c-.22-1-.86-2.09-2.94-2.09s-4,1.39-4,4.35S143.64,43,146,43a3.06,3.06,0,0,0,3-2,.3.3,0,0,1,.37.06,5.47,5.47,0,0,1-.69,2,4.1,4.1,0,0,0-.5.14,8.27,8.27,0,0,1-2.26.33,6.21,6.21,0,0,1-3.57-1,4.59,4.59,0,0,1-2-3.93,4.75,4.75,0,0,1,1.8-3.8"/>
            <path class="cls-5" d="M151,35.92c.07-1.49,0-1.71-.81-1.81l-.23,0a.3.3,0,0,1,0-.36,4,4,0,0,0,1.69-.73h2.7a14.53,14.53,0,0,0,1.93.73,15.58,15.58,0,0,1,.23,1.9.28.28,0,0,1-.36,0c-.21-.67-.34-1.17-1.09-1.36a9.69,9.69,0,0,1-1.39-.3h-1a1.72,1.72,0,0,0-.67.79v2.86a.86.86,0,0,0,.71.35h.84a4.13,4.13,0,0,0,1.21,0c.17-.06.28-.15.35-.5l.11-.59c.07-.09.32-.09.37,0,0,.35-.05.91-.05,1.45s.05,1.06.05,1.37c-.05.1-.3.1-.37,0l-.13-.56a.6.6,0,0,0-.44-.54c-.2-.06-.55-.08-1.1.37h-.84c-.42-.45-.71-.06-.71-.06v2a5.92,5.92,0,0,0,.52,1.49c.17.17.47.33,1.73.33a4.1,4.1,0,0,0,1.83-.22,3.61,3.61,0,0,0,1-1.38.26.26,0,0,1,.36.1,13.27,13.27,0,0,1-.65,2A26,26,0,0,1,153,43h-1.29a5.82,5.82,0,0,1-1.94.27.27.27,0,0,1,0-.36l.47,0c.82-.08.89-.29.82-1.79Z"/>
            <path class="cls-5" d="M111,54.49c.11,1.5.15,1.71,1.09,1.79l.53,0c.1.06.06.32,0,.36-.93,0-1.48,0-2.14,0s-1.22,0-2.27,0a.24.24,0,0,1,0-.36l.59,0c.93-.07,1-.29,1.24-1.79v-6.4a4.94,4.94,0,0,0-.72-1.09h-.89c-.71.63-1.6.66-2,1a2.5,2.5,0,0,0-.74,1,.35.35,0,0,1-.42-.1,14.39,14.39,0,0,0,.62-2.14.47.47,0,0,1,.31,0c.1.46.64.45,1.39.26h6.61c.88.19,1,.16,1.28-.21.08,0,.26,0,.29,0a7.6,7.6,0,0,0-.24,2.18.36.36,0,0,1-.43,0c0-.36-.16-.89-.41-1a14.47,14.47,0,0,1-1.89-1h-1.16a2,2,0,0,0-.59,1.12Z"/>
            <path class="cls-5" d="M119,49.35c-.41-1.36-.46-1.6-1.13-1.68l-.52-.05a.22.22,0,0,1,0-.36c.92-.07,2-.12,3.65-.12a6.65,6.65,0,0,1,2.73.43,2.13,2.13,0,0,1,1.35,2,2.72,2.72,0,0,1-2,2.39c-.08.09,0,.23.08.35a16.2,16.2,0,0,0,3.28,3.81,2.18,2.18,0,0,0,1.13.4.11.11,0,0,1,0,.2,3.08,3.08,0,0,1-.72.07A3.77,3.77,0,0,1,123.46,55c-.43-.53-1.1-1.51-1.6-2.16a1.25,1.25,0,0,0-1.16-.46c-.74,0-.77,0-.7.32v1.8c-.07,1.51,0,1.68.91,1.79l.34,0a.24.24,0,0,1,0,.35c-.74,0-1.29,0-1.94,0s-1.28,0-2,0a.25.25,0,0,1,0-.35l.41,0c1-.1,1-.28,1.39-1.79Zm1,2c0,.26,0,.41,0,.47a3.54,3.54,0,0,0,1.13.07,3,3,0,0,0,1.68-.37,2,2,0,0,0,.82-1.78c0-1.13-.8-2.2-2.62-2.2-1,0-1.06.06-1.06.46Z"/>
            <path class="cls-5" d="M136,50.78a6.46,6.46,0,0,0-.16-3,1.06,1.06,0,0,0-.81-.3l-.41,0a.24.24,0,0,1,0-.35c.62,0,1.23,0,1.86,0s1.13,0,1.72,0a.24.24,0,0,1,0,.35l-.39,0c-.41,0-.74.15-.82.34a12.12,12.12,0,0,0-.05,2.92v1.51a4.78,4.78,0,0,1-1.2,3.59,4.89,4.89,0,0,1-3.27,1.1,5.36,5.36,0,0,1-3.2-.83c-.9-.66-1.33-1.75-1.33-3.54V49.32s.2-1.73-.75-1.8l-.41,0c-.1-.06-.06-.3,0-.35.81,0,1.37,0,2,0s1.21,0,2,0c.1,0,.13.29,0,.35l-.39,0c-1,.07-1.55,1.8-1.55,1.8v3c0,2.46.87,4.07,3.52,4.07s3.48-1.74,3.48-4Z"/>
            <path class="cls-5" d="M141.55,56.87a5.55,5.55,0,0,1-2.54-.53,6,6,0,0,1-.45-2c.08-.1.33-.13.4,0a2.84,2.84,0,0,0,2.81,2.13c1.37,0,2-.78,2-1.64a2.12,2.12,0,0,0-1.34-2l-1.55-.88a3.07,3.07,0,0,1-1.77-2.47c0-1.36,1.21-2.46,3.33-2.46a6.53,6.53,0,0,1,1.52.18,3.06,3.06,0,0,0,.58.09,5.78,5.78,0,0,1,.29,1.75c-.07.08-.33.13-.41,0a2.06,2.06,0,0,0-2.22-1.62c-1.6,0-1.94.93-1.94,1.59,0,.83.78,1.42,1.38,1.76l1.31.72a3.24,3.24,0,0,1,2,2.75c0,1.57-1.35,2.65-3.48,2.65"/>
            <path class="cls-5" d="M152,54.49c.2,1.5.23,1.71,1.18,1.79l.52,0c.1.06.07.32,0,.36-.93,0-1.49,0-2.14,0s-1.22,0-2.27,0a.23.23,0,0,1,0-.36l.59,0c.93-.07,1-.29,1.15-1.79v-6.4a2.48,2.48,0,0,0-.63-1.09h-.9c-.7.63-1.6.66-2,1a2.57,2.57,0,0,0-.73,1,.36.36,0,0,1-.43-.1,13.29,13.29,0,0,0,.62-2.14.5.5,0,0,1,.32,0c.09.46.63.45,1.38.26h6.62c.88.19,1,.16,1.27-.21.08,0,.27,0,.3,0a7.64,7.64,0,0,0-.25,2.18c-.06.11-.34.11-.42,0,0-.36-.17-.89-.41-1a13.78,13.78,0,0,1-1.9-1h-1.16a3.35,3.35,0,0,0-.67,1.12Z"/>
            <polygon class="cls-5" points="67.36 57 54.32 57 77.71 44.73 67.36 57"/>
            <polygon class="cls-5" points="92.22 57 105.25 57 81.87 44.73 92.22 57"/>
            <path class="cls-5" d="M155.59,53.88a1.5,1.5,0,0,1,.7.19,1.31,1.31,0,0,1,.54.53,1.43,1.43,0,0,1,.19.71,1.38,1.38,0,0,1-.19.71,1.23,1.23,0,0,1-.53.53,1.42,1.42,0,0,1-1.42,0,1.23,1.23,0,0,1-.53-.53,1.38,1.38,0,0,1-.19-.71,1.43,1.43,0,0,1,.19-.71,1.31,1.31,0,0,1,.54-.53,1.5,1.5,0,0,1,.7-.19m0,.24a1.16,1.16,0,0,0-.59.16,1,1,0,0,0-.44.44,1.18,1.18,0,0,0-.17.59,1.28,1.28,0,0,0,.16.6,1.19,1.19,0,0,0,1,.59,1.23,1.23,0,0,0,.59-.15,1.16,1.16,0,0,0,.44-.44,1.19,1.19,0,0,0,0-1.19,1.1,1.1,0,0,0-.44-.44,1.19,1.19,0,0,0-.59-.16M156,56V54h-.51c.18.57.31.58.4.61a.4.4,0,0,1,.19.15.36.36,0,0,1,.07.22.42.42,0,0,1-.12.3.5.5,0,0,1-.32.14.41.41,0,0,1,.13.08,1.87,1.87,0,0,1,.23.3l.19.2H156l-.13-.14a1.24,1.24,0,0,0-.27-.36s-.11,0-.2-.5H155v1Zm-1-1h.52c.14.24.24.21.3.17a.21.21,0,0,0,.08-.17.28.28,0,0,0,0-.12.31.31,0,0,0-.11-.08c-.05,0-.13,0-.25,1.2H155Z"/>
          </g>
        </g>
      </g>
    </g>
  </g>
</svg>
